<?xml version="1.0" encoding="UTF-8" standalone="no"?>
<!DOCTYPE svg PUBLIC "-//W3C//DTD SVG 1.1//EN"
 "http://www.w3.org/Graphics/SVG/1.1/DTD/svg11.dtd">
<!-- Generated by graphviz version 2.40.1 (20161225.0304)
 -->
<!-- Title: %3 Pages: 1 -->
<svg width="473pt" height="916pt"
 viewBox="0.00 0.00 473.00 916.00" xmlns="http://www.w3.org/2000/svg" xmlns:xlink="http://www.w3.org/1999/xlink">
<g id="graph0" class="graph" transform="scale(1 1) rotate(0) translate(4 912)">
<title>%3</title>
<polygon fill="#ffffff" stroke="transparent" points="-4,4 -4,-912 469,-912 469,4 -4,4"/>
<!-- E -->
<g id="node1" class="node">
<title>E</title>
<polygon fill="none" stroke="#000000" points="286.5,-881 286.5,-901 375.5,-901 375.5,-881 286.5,-881"/>
<text text-anchor="start" x="310.0034" y="-887.8" font-family="Times,serif" font-weight="bold" font-size="14.00" fill="#000000">District</text>
<polygon fill="none" stroke="#000000" points="286.5,-859 286.5,-879 375.5,-879 375.5,-859 286.5,-859"/>
<text text-anchor="start" x="289.2017" y="-865.8" font-family="Times,serif" font-style="italic" font-size="14.00" fill="#000000">district_id (pk)</text>
<polygon fill="none" stroke="#000000" points="286.5,-837 286.5,-857 375.5,-857 375.5,-837 286.5,-837"/>
<text text-anchor="start" x="317.7861" y="-842.8" font-family="Times,serif" font-size="14.00" fill="#000000">code</text>
<polygon fill="none" stroke="#000000" points="286.5,-815 286.5,-835 375.5,-835 375.5,-815 286.5,-815"/>
<text text-anchor="start" x="318.1724" y="-820.8" font-family="Times,serif" font-size="14.00" fill="#000000">state</text>
<polygon fill="none" stroke="#000000" points="286.5,-793 286.5,-813 375.5,-813 375.5,-793 286.5,-793"/>
<text text-anchor="start" x="320.5034" y="-798.8" font-family="Times,serif" font-size="14.00" fill="#000000">city</text>
<polygon fill="none" stroke="#000000" points="286.5,-771 286.5,-791 375.5,-791 375.5,-771 286.5,-771"/>
<text text-anchor="start" x="309.6172" y="-776.8" font-family="Times,serif" font-size="14.00" fill="#000000">number</text>
<polygon fill="none" stroke="#000000" points="283,-768 283,-904 378,-904 378,-768 283,-768"/>
</g>
<!-- F -->
<g id="node2" class="node">
<title>F</title>
<polygon fill="none" stroke="#000000" points="287.5,-701 287.5,-721 374.5,-721 374.5,-701 287.5,-701"/>
<text text-anchor="start" x="311.5552" y="-707.8" font-family="Times,serif" font-weight="bold" font-size="14.00" fill="#000000">School</text>
<polygon fill="none" stroke="#000000" points="287.5,-679 287.5,-699 374.5,-699 374.5,-679 287.5,-679"/>
<text text-anchor="start" x="290.3672" y="-685.8" font-family="Times,serif" font-style="italic" font-size="14.00" fill="#000000">school_id (pk)</text>
<polygon fill="none" stroke="#000000" points="287.5,-657 287.5,-677 374.5,-677 374.5,-657 287.5,-657"/>
<text text-anchor="start" x="290.3706" y="-663.8" font-family="Times,serif" font-style="italic" font-size="14.00" fill="#000000">district_id (fk)</text>
<polygon fill="none" stroke="#000000" points="287.5,-635 287.5,-655 374.5,-655 374.5,-635 287.5,-635"/>
<text text-anchor="start" x="315.8413" y="-640.8" font-family="Times,serif" font-size="14.00" fill="#000000">name</text>
<polygon fill="none" stroke="#000000" points="284,-632 284,-724 377,-724 377,-632 284,-632"/>
</g>
<!-- E&#45;&gt;F -->
<g id="edge5" class="edge">
<title>E&#45;&gt;F</title>
<path fill="none" stroke="#000000" d="M330.5,-763.9354C330.5,-755.3718 330.5,-746.6987 330.5,-738.3227"/>
<polygon fill="#000000" stroke="#000000" points="334.0001,-738.2805 330.5,-728.2806 327.0001,-738.2806 334.0001,-738.2805"/>
</g>
<!-- D -->
<g id="node3" class="node">
<title>D</title>
<polygon fill="none" stroke="#000000" points="189.5,-565 189.5,-585 291.5,-585 291.5,-565 189.5,-565"/>
<text text-anchor="start" x="219.1104" y="-571.8" font-family="Times,serif" font-weight="bold" font-size="14.00" fill="#000000">Student</text>
<polygon fill="none" stroke="#000000" points="189.5,-543 189.5,-563 291.5,-563 291.5,-543 189.5,-543"/>
<text text-anchor="start" x="197.9224" y="-549.8" font-family="Times,serif" font-style="italic" font-size="14.00" fill="#000000">student_id (pk)</text>
<polygon fill="none" stroke="#000000" points="189.5,-521 189.5,-541 291.5,-541 291.5,-521 189.5,-521"/>
<text text-anchor="start" x="192.4775" y="-527.8" font-family="Times,serif" font-style="italic" font-size="14.00" fill="#000000">school_id (m2m)</text>
<polygon fill="none" stroke="#000000" points="189.5,-499 189.5,-519 291.5,-519 291.5,-499 189.5,-499"/>
<text text-anchor="start" x="210.9482" y="-504.8" font-family="Times,serif" font-size="14.00" fill="#000000">first_name</text>
<polygon fill="none" stroke="#000000" points="189.5,-477 189.5,-497 291.5,-497 291.5,-477 189.5,-477"/>
<text text-anchor="start" x="212.1206" y="-482.8" font-family="Times,serif" font-size="14.00" fill="#000000">last_name</text>
<polygon fill="none" stroke="#000000" points="189.5,-455 189.5,-475 291.5,-475 291.5,-455 189.5,-455"/>
<text text-anchor="start" x="202.3999" y="-460.8" font-family="Times,serif" font-size="14.00" fill="#000000">middle_name</text>
<polygon fill="none" stroke="#000000" points="189.5,-433 189.5,-453 291.5,-453 291.5,-433 189.5,-433"/>
<text text-anchor="start" x="221.4551" y="-438.8" font-family="Times,serif" font-size="14.00" fill="#000000">gender</text>
<polygon fill="none" stroke="#000000" points="189.5,-411 189.5,-431 291.5,-431 291.5,-411 189.5,-411"/>
<text text-anchor="start" x="215.6206" y="-416.8" font-family="Times,serif" font-size="14.00" fill="#000000">birthdate</text>
<polygon fill="none" stroke="#000000" points="189.5,-389 189.5,-409 291.5,-409 291.5,-389 189.5,-389"/>
<text text-anchor="start" x="218.7275" y="-394.8" font-family="Times,serif" font-size="14.00" fill="#000000">state_id</text>
<polygon fill="none" stroke="#000000" points="186.5,-386 186.5,-588 294.5,-588 294.5,-386 186.5,-386"/>
</g>
<!-- F&#45;&gt;D -->
<g id="edge8" class="edge">
<title>F&#45;&gt;D</title>
<path fill="none" stroke="#000000" d="M306.8536,-627.817C302.9475,-619.5274 298.762,-610.6449 294.4627,-601.5209"/>
<polygon fill="#000000" stroke="#000000" points="297.5604,-599.8836 290.1317,-592.3294 291.2281,-602.8674 297.5604,-599.8836"/>
</g>
<!-- H -->
<g id="node4" class="node">
<title>H</title>
<polygon fill="none" stroke="#000000" points="179.5,-319 179.5,-339 302.5,-339 302.5,-319 179.5,-319"/>
<text text-anchor="start" x="203.8604" y="-325.8" font-family="Times,serif" font-weight="bold" font-size="14.00" fill="#000000">Student Snap</text>
<polygon fill="none" stroke="#000000" points="179.5,-297 179.5,-317 302.5,-317 302.5,-297 179.5,-297"/>
<text text-anchor="start" x="182.0913" y="-303.8" font-family="Times,serif" font-style="italic" font-size="14.00" fill="#000000">student_snap_id (pk)</text>
<polygon fill="none" stroke="#000000" points="179.5,-275 179.5,-295 302.5,-295 302.5,-275 179.5,-275"/>
<text text-anchor="start" x="201.5361" y="-281.8" font-family="Times,serif" font-style="italic" font-size="14.00" fill="#000000">school_id (fk)</text>
<polygon fill="none" stroke="#000000" points="179.5,-253 179.5,-273 302.5,-273 302.5,-253 179.5,-253"/>
<text text-anchor="start" x="199.5913" y="-259.8" font-family="Times,serif" font-style="italic" font-size="14.00" fill="#000000">student_id (fk)</text>
<polygon fill="none" stroke="#000000" points="179.5,-231 179.5,-251 302.5,-251 302.5,-231 179.5,-231"/>
<text text-anchor="start" x="205.2344" y="-236.8" font-family="Times,serif" font-size="14.00" fill="#000000">student_year</text>
<polygon fill="none" stroke="#000000" points="179.5,-209 179.5,-229 302.5,-229 302.5,-209 179.5,-209"/>
<text text-anchor="start" x="204.4517" y="-214.8" font-family="Times,serif" font-size="14.00" fill="#000000">student_term</text>
<polygon fill="none" stroke="#000000" points="176,-206 176,-342 305,-342 305,-206 176,-206"/>
</g>
<!-- F&#45;&gt;H -->
<g id="edge6" class="edge">
<title>F&#45;&gt;H</title>
<path fill="none" stroke="#000000" d="M334.9427,-627.8056C338.5425,-567.7005 339.1911,-464.7744 311.5,-382 308.462,-372.9187 304.4638,-363.8639 299.91,-355.0791"/>
<polygon fill="#000000" stroke="#000000" points="302.8385,-353.1386 294.9802,-346.0323 296.6918,-356.488 302.8385,-353.1386"/>
</g>
<!-- G -->
<g id="node5" class="node">
<title>G</title>
<polygon fill="none" stroke="#000000" points="346.5,-308 346.5,-328 433.5,-328 433.5,-308 346.5,-308"/>
<text text-anchor="start" x="370.1689" y="-314.8" font-family="Times,serif" font-weight="bold" font-size="14.00" fill="#000000">Course</text>
<polygon fill="none" stroke="#000000" points="346.5,-286 346.5,-306 433.5,-306 433.5,-286 346.5,-286"/>
<text text-anchor="start" x="349.374" y="-292.8" font-family="Times,serif" font-style="italic" font-size="14.00" fill="#000000">course_id (pk)</text>
<polygon fill="none" stroke="#000000" points="346.5,-264 346.5,-284 433.5,-284 433.5,-264 346.5,-264"/>
<text text-anchor="start" x="350.5361" y="-270.8" font-family="Times,serif" font-style="italic" font-size="14.00" fill="#000000">school_id (fk)</text>
<polygon fill="none" stroke="#000000" points="346.5,-242 346.5,-262 433.5,-262 433.5,-242 346.5,-242"/>
<text text-anchor="start" x="374.8413" y="-247.8" font-family="Times,serif" font-size="14.00" fill="#000000">name</text>
<polygon fill="none" stroke="#000000" points="346.5,-220 346.5,-240 433.5,-240 433.5,-220 346.5,-220"/>
<text text-anchor="start" x="370.1724" y="-225.8" font-family="Times,serif" font-size="14.00" fill="#000000">subject</text>
<polygon fill="none" stroke="#000000" points="343,-217 343,-331 436,-331 436,-217 343,-217"/>
</g>
<!-- F&#45;&gt;G -->
<g id="edge7" class="edge">
<title>F&#45;&gt;G</title>
<path fill="none" stroke="#000000" d="M338.8927,-627.5505C340.7835,-615.8839 342.7481,-603.5154 344.5,-592 357.3958,-507.2338 371.0357,-409.5632 379.8729,-345.0758"/>
<polygon fill="#000000" stroke="#000000" points="383.3611,-345.4001 381.2491,-335.0179 376.4257,-344.4511 383.3611,-345.4001"/>
</g>
<!-- D&#45;&gt;H -->
<g id="edge4" class="edge">
<title>D&#45;&gt;H</title>
<path fill="none" stroke="#000000" d="M240.5,-381.748C240.5,-373.179 240.5,-364.5992 240.5,-356.2305"/>
<polygon fill="#000000" stroke="#000000" points="244.0001,-356.1422 240.5,-346.1423 237.0001,-356.1423 244.0001,-356.1422"/>
</g>
<!-- A -->
<g id="node6" class="node">
<title>A</title>
<polygon fill="none" stroke="#000000" points="11.5,-117 11.5,-137 132.5,-137 132.5,-117 11.5,-117"/>
<text text-anchor="start" x="46.3413" y="-123.8" font-family="Times,serif" font-weight="bold" font-size="14.00" fill="#000000">Behavior</text>
<polygon fill="none" stroke="#000000" points="11.5,-95 11.5,-115 132.5,-115 132.5,-95 11.5,-95"/>
<text text-anchor="start" x="14.2603" y="-101.8" font-family="Times,serif" font-style="italic" font-size="14.00" fill="#000000">student_snap_id (fk)</text>
<polygon fill="none" stroke="#000000" points="11.5,-73 11.5,-93 132.5,-93 132.5,-73 11.5,-73"/>
<text text-anchor="start" x="18.3516" y="-78.8" font-family="Times,serif" font-size="14.00" fill="#000000">incident_date_time</text>
<polygon fill="none" stroke="#000000" points="11.5,-51 11.5,-71 132.5,-71 132.5,-51 11.5,-51"/>
<text text-anchor="start" x="51.3965" y="-56.8" font-family="Times,serif" font-size="14.00" fill="#000000">context</text>
<polygon fill="none" stroke="#000000" points="11.5,-29 11.5,-49 132.5,-49 132.5,-29 11.5,-29"/>
<text text-anchor="start" x="56.4482" y="-34.8" font-family="Times,serif" font-size="14.00" fill="#000000">result</text>
<polygon fill="none" stroke="#000000" points="8,-26 8,-140 135,-140 135,-26 8,-26"/>
</g>
<!-- H&#45;&gt;A -->
<g id="edge3" class="edge">
<title>H&#45;&gt;A</title>
<path fill="none" stroke="#000000" d="M176.6083,-201.7911C162.1493,-185.4498 146.833,-168.1396 132.4971,-151.9376"/>
<polygon fill="#000000" stroke="#000000" points="134.7942,-149.2519 125.5464,-144.082 129.5517,-153.8905 134.7942,-149.2519"/>
</g>
<!-- B -->
<g id="node7" class="node">
<title>B</title>
<polygon fill="none" stroke="#000000" points="172.5,-128 172.5,-148 293.5,-148 293.5,-128 172.5,-128"/>
<text text-anchor="start" x="201.1274" y="-134.8" font-family="Times,serif" font-weight="bold" font-size="14.00" fill="#000000">Attendance</text>
<polygon fill="none" stroke="#000000" points="172.5,-106 172.5,-126 293.5,-126 293.5,-106 172.5,-106"/>
<text text-anchor="start" x="175.2603" y="-112.8" font-family="Times,serif" font-style="italic" font-size="14.00" fill="#000000">student_snap_id (fk)</text>
<polygon fill="none" stroke="#000000" points="172.5,-84 172.5,-104 293.5,-104 293.5,-84 172.5,-84"/>
<text text-anchor="start" x="187.5171" y="-89.8" font-family="Times,serif" font-size="14.00" fill="#000000">entry_date_time</text>
<polygon fill="none" stroke="#000000" points="172.5,-62 172.5,-82 293.5,-82 293.5,-62 172.5,-62"/>
<text text-anchor="start" x="194.1206" y="-67.8" font-family="Times,serif" font-size="14.00" fill="#000000">total_unexabs</text>
<polygon fill="none" stroke="#000000" points="172.5,-40 172.5,-60 293.5,-60 293.5,-40 172.5,-40"/>
<text text-anchor="start" x="201.1206" y="-45.8" font-family="Times,serif" font-size="14.00" fill="#000000">total_exabs</text>
<polygon fill="none" stroke="#000000" points="172.5,-18 172.5,-38 293.5,-38 293.5,-18 172.5,-18"/>
<text text-anchor="start" x="198.3999" y="-23.8" font-family="Times,serif" font-size="14.00" fill="#000000">total_tardies</text>
<polygon fill="none" stroke="#000000" points="169,-15 169,-151 296,-151 296,-15 169,-15"/>
</g>
<!-- H&#45;&gt;B -->
<g id="edge1" class="edge">
<title>H&#45;&gt;B</title>
<path fill="none" stroke="#000000" d="M237.4755,-201.7911C236.9778,-189.9066 236.4585,-177.5095 235.9513,-165.399"/>
<polygon fill="#000000" stroke="#000000" points="239.4442,-165.1558 235.5287,-155.311 232.4504,-165.4488 239.4442,-165.1558"/>
</g>
<!-- C -->
<g id="node8" class="node">
<title>C</title>
<polygon fill="none" stroke="#000000" points="333.5,-139 333.5,-159 454.5,-159 454.5,-139 333.5,-139"/>
<text text-anchor="start" x="376.8999" y="-145.8" font-family="Times,serif" font-weight="bold" font-size="14.00" fill="#000000">Grade</text>
<polygon fill="none" stroke="#000000" points="333.5,-117 333.5,-137 454.5,-137 454.5,-117 333.5,-117"/>
<text text-anchor="start" x="336.2603" y="-123.8" font-family="Times,serif" font-style="italic" font-size="14.00" fill="#000000">student_snap_id (fk)</text>
<polygon fill="none" stroke="#000000" points="333.5,-95 333.5,-115 454.5,-115 454.5,-95 333.5,-95"/>
<text text-anchor="start" x="354.543" y="-101.8" font-family="Times,serif" font-style="italic" font-size="14.00" fill="#000000">course_id (fk)</text>
<polygon fill="none" stroke="#000000" points="333.5,-73 333.5,-93 454.5,-93 454.5,-73 333.5,-73"/>
<text text-anchor="start" x="348.5171" y="-78.8" font-family="Times,serif" font-size="14.00" fill="#000000">entry_date_time</text>
<polygon fill="none" stroke="#000000" points="333.5,-51 333.5,-71 454.5,-71 454.5,-51 333.5,-51"/>
<text text-anchor="start" x="357.0757" y="-56.8" font-family="Times,serif" font-size="14.00" fill="#000000">grade_metric</text>
<polygon fill="none" stroke="#000000" points="333.5,-29 333.5,-49 454.5,-49 454.5,-29 333.5,-29"/>
<text text-anchor="start" x="360.9653" y="-34.8" font-family="Times,serif" font-size="14.00" fill="#000000">grade_scale</text>
<polygon fill="none" stroke="#000000" points="333.5,-7 333.5,-27 454.5,-27 454.5,-7 333.5,-7"/>
<text text-anchor="start" x="354.3413" y="-12.8" font-family="Times,serif" font-size="14.00" fill="#000000">grade_is_final</text>
<polygon fill="none" stroke="#000000" points="330,-4 330,-162 457,-162 457,-4 330,-4"/>
</g>
<!-- H&#45;&gt;C -->
<g id="edge2" class="edge">
<title>H&#45;&gt;C</title>
<path fill="none" stroke="#000000" d="M298.3427,-201.7911C305.615,-192.7126 313.1269,-183.3351 320.593,-174.0147"/>
<polygon fill="#000000" stroke="#000000" points="323.3272,-176.1997 326.8475,-166.2067 317.8639,-171.8233 323.3272,-176.1997"/>
</g>
<!-- G&#45;&gt;C -->
<g id="edge9" class="edge">
<title>G&#45;&gt;C</title>
<path fill="none" stroke="#000000" d="M390.7821,-212.7783C391.0249,-201.1849 391.284,-188.8143 391.5421,-176.4885"/>
<polygon fill="#000000" stroke="#000000" points="395.0481,-176.2345 391.7584,-166.1633 388.0497,-176.0878 395.0481,-176.2345"/>
</g>
</g>
</svg>
