<?xml version="1.0" encoding="UTF-8" standalone="no"?>
<!DOCTYPE svg PUBLIC "-//W3C//DTD SVG 1.1//EN"
 "http://www.w3.org/Graphics/SVG/1.1/DTD/svg11.dtd">
<!-- Generated by graphviz version 2.40.1 (20161225.0304)
 -->
<!-- Title: %3 Pages: 1 -->
<svg width="506pt" height="960pt"
 viewBox="0.00 0.00 506.00 960.00" xmlns="http://www.w3.org/2000/svg" xmlns:xlink="http://www.w3.org/1999/xlink">
<g id="graph0" class="graph" transform="scale(1 1) rotate(0) translate(4 956)">
<title>%3</title>
<polygon fill="#ffffff" stroke="transparent" points="-4,4 -4,-956 502,-956 502,4 -4,4"/>
<!-- E -->
<g id="node1" class="node">
<title>E</title>
<polygon fill="none" stroke="#000000" points="305,-925 305,-945 394,-945 394,-925 305,-925"/>
<text text-anchor="start" x="328.5034" y="-931.8" font-family="Times,serif" font-weight="bold" font-size="14.00" fill="#000000">District</text>
<polygon fill="none" stroke="#000000" points="305,-903 305,-923 394,-923 394,-903 305,-903"/>
<text text-anchor="start" x="307.7017" y="-909.8" font-family="Times,serif" font-style="italic" font-size="14.00" fill="#000000">district_id (pk)</text>
<polygon fill="none" stroke="#000000" points="305,-881 305,-901 394,-901 394,-881 305,-881"/>
<text text-anchor="start" x="334.3413" y="-886.8" font-family="Times,serif" font-size="14.00" fill="#000000">name</text>
<polygon fill="none" stroke="#000000" points="305,-859 305,-879 394,-879 394,-859 305,-859"/>
<text text-anchor="start" x="336.6724" y="-864.8" font-family="Times,serif" font-size="14.00" fill="#000000">state</text>
<polygon fill="none" stroke="#000000" points="305,-837 305,-857 394,-857 394,-837 305,-837"/>
<text text-anchor="start" x="339.0034" y="-842.8" font-family="Times,serif" font-size="14.00" fill="#000000">city</text>
<polygon fill="none" stroke="#000000" points="305,-815 305,-835 394,-835 394,-815 305,-815"/>
<text text-anchor="start" x="328.1172" y="-820.8" font-family="Times,serif" font-size="14.00" fill="#000000">number</text>
<polygon fill="none" stroke="#000000" points="305,-793 305,-813 394,-813 394,-793 305,-793"/>
<text text-anchor="start" x="317.6274" y="-798.8" font-family="Times,serif" font-size="14.00" fill="#000000">name_code</text>
<polygon fill="none" stroke="#000000" points="301.5,-790 301.5,-948 396.5,-948 396.5,-790 301.5,-790"/>
</g>
<!-- F -->
<g id="node2" class="node">
<title>F</title>
<polygon fill="none" stroke="#000000" points="306,-723 306,-743 393,-743 393,-723 306,-723"/>
<text text-anchor="start" x="330.0552" y="-729.8" font-family="Times,serif" font-weight="bold" font-size="14.00" fill="#000000">School</text>
<polygon fill="none" stroke="#000000" points="306,-701 306,-721 393,-721 393,-701 306,-701"/>
<text text-anchor="start" x="308.8672" y="-707.8" font-family="Times,serif" font-style="italic" font-size="14.00" fill="#000000">school_id (pk)</text>
<polygon fill="none" stroke="#000000" points="306,-679 306,-699 393,-699 393,-679 306,-679"/>
<text text-anchor="start" x="308.8706" y="-685.8" font-family="Times,serif" font-style="italic" font-size="14.00" fill="#000000">district_id (fk)</text>
<polygon fill="none" stroke="#000000" points="306,-657 306,-677 393,-677 393,-657 306,-657"/>
<text text-anchor="start" x="334.3413" y="-662.8" font-family="Times,serif" font-size="14.00" fill="#000000">name</text>
<polygon fill="none" stroke="#000000" points="302.5,-654 302.5,-746 395.5,-746 395.5,-654 302.5,-654"/>
</g>
<!-- E&#45;&gt;F -->
<g id="edge5" class="edge">
<title>E&#45;&gt;F</title>
<path fill="none" stroke="#000000" d="M349,-785.9853C349,-777.416 349,-768.8264 349,-760.5691"/>
<polygon fill="#000000" stroke="#000000" points="352.5001,-760.314 349,-750.3141 345.5001,-760.3141 352.5001,-760.314"/>
</g>
<!-- D -->
<g id="node3" class="node">
<title>D</title>
<polygon fill="none" stroke="#000000" points="208,-587 208,-607 310,-607 310,-587 208,-587"/>
<text text-anchor="start" x="237.6104" y="-593.8" font-family="Times,serif" font-weight="bold" font-size="14.00" fill="#000000">Student</text>
<polygon fill="none" stroke="#000000" points="208,-565 208,-585 310,-585 310,-565 208,-565"/>
<text text-anchor="start" x="216.4224" y="-571.8" font-family="Times,serif" font-style="italic" font-size="14.00" fill="#000000">student_id (pk)</text>
<polygon fill="none" stroke="#000000" points="208,-543 208,-563 310,-563 310,-543 208,-543"/>
<text text-anchor="start" x="210.9775" y="-549.8" font-family="Times,serif" font-style="italic" font-size="14.00" fill="#000000">school_id (m2m)</text>
<polygon fill="none" stroke="#000000" points="208,-521 208,-541 310,-541 310,-521 208,-521"/>
<text text-anchor="start" x="229.4482" y="-526.8" font-family="Times,serif" font-size="14.00" fill="#000000">first_name</text>
<polygon fill="none" stroke="#000000" points="208,-499 208,-519 310,-519 310,-499 208,-499"/>
<text text-anchor="start" x="230.6206" y="-504.8" font-family="Times,serif" font-size="14.00" fill="#000000">last_name</text>
<polygon fill="none" stroke="#000000" points="208,-477 208,-497 310,-497 310,-477 208,-477"/>
<text text-anchor="start" x="220.8999" y="-482.8" font-family="Times,serif" font-size="14.00" fill="#000000">middle_name</text>
<polygon fill="none" stroke="#000000" points="208,-455 208,-475 310,-475 310,-455 208,-455"/>
<text text-anchor="start" x="239.9551" y="-460.8" font-family="Times,serif" font-size="14.00" fill="#000000">gender</text>
<polygon fill="none" stroke="#000000" points="208,-433 208,-453 310,-453 310,-433 208,-433"/>
<text text-anchor="start" x="234.1206" y="-438.8" font-family="Times,serif" font-size="14.00" fill="#000000">birthdate</text>
<polygon fill="none" stroke="#000000" points="208,-411 208,-431 310,-431 310,-411 208,-411"/>
<text text-anchor="start" x="243.4551" y="-416.8" font-family="Times,serif" font-size="14.00" fill="#000000">grade</text>
<polygon fill="none" stroke="#000000" points="208,-389 208,-409 310,-409 310,-389 208,-389"/>
<text text-anchor="start" x="237.2275" y="-394.8" font-family="Times,serif" font-size="14.00" fill="#000000">state_id</text>
<polygon fill="none" stroke="#000000" points="205,-386 205,-610 313,-610 313,-386 205,-386"/>
</g>
<!-- F&#45;&gt;D -->
<g id="edge8" class="edge">
<title>F&#45;&gt;D</title>
<path fill="none" stroke="#000000" d="M326.6372,-649.8079C322.967,-641.5703 319.0251,-632.7229 314.9559,-623.59"/>
<polygon fill="#000000" stroke="#000000" points="318.1166,-622.0838 310.8497,-614.3739 311.7225,-624.9327 318.1166,-622.0838"/>
</g>
<!-- H -->
<g id="node4" class="node">
<title>H</title>
<polygon fill="none" stroke="#000000" points="192,-308 192,-328 326,-328 326,-308 192,-308"/>
<text text-anchor="start" x="214.6655" y="-314.8" font-family="Times,serif" font-weight="bold" font-size="14.00" fill="#000000">School_Student</text>
<polygon fill="none" stroke="#000000" points="192,-286 192,-306 326,-306 326,-286 192,-286"/>
<text text-anchor="start" x="194.6465" y="-292.8" font-family="Times,serif" font-style="italic" font-size="14.00" fill="#000000">school_student_id (pk)</text>
<polygon fill="none" stroke="#000000" points="192,-264 192,-284 326,-284 326,-264 192,-264"/>
<text text-anchor="start" x="219.5361" y="-270.8" font-family="Times,serif" font-style="italic" font-size="14.00" fill="#000000">school_id (fk)</text>
<polygon fill="none" stroke="#000000" points="192,-242 192,-262 326,-262 326,-242 192,-242"/>
<text text-anchor="start" x="217.5913" y="-248.8" font-family="Times,serif" font-style="italic" font-size="14.00" fill="#000000">student_id (fk)</text>
<polygon fill="none" stroke="#000000" points="189,-239 189,-331 329,-331 329,-239 189,-239"/>
</g>
<!-- F&#45;&gt;H -->
<g id="edge6" class="edge">
<title>F&#45;&gt;H</title>
<path fill="none" stroke="#000000" d="M354.5296,-649.7807C359.7044,-585.5954 362.4279,-472.018 330,-382 325.2191,-368.7284 318.013,-355.7028 309.9957,-343.7184"/>
<polygon fill="#000000" stroke="#000000" points="312.633,-341.3818 304.0377,-335.1874 306.894,-345.3899 312.633,-341.3818"/>
</g>
<!-- G -->
<g id="node5" class="node">
<title>G</title>
<polygon fill="none" stroke="#000000" points="372,-319 372,-339 459,-339 459,-319 372,-319"/>
<text text-anchor="start" x="395.6689" y="-325.8" font-family="Times,serif" font-weight="bold" font-size="14.00" fill="#000000">Course</text>
<polygon fill="none" stroke="#000000" points="372,-297 372,-317 459,-317 459,-297 372,-297"/>
<text text-anchor="start" x="374.874" y="-303.8" font-family="Times,serif" font-style="italic" font-size="14.00" fill="#000000">course_id (pk)</text>
<polygon fill="none" stroke="#000000" points="372,-275 372,-295 459,-295 459,-275 372,-275"/>
<text text-anchor="start" x="376.0361" y="-281.8" font-family="Times,serif" font-style="italic" font-size="14.00" fill="#000000">school_id (fk)</text>
<polygon fill="none" stroke="#000000" points="372,-253 372,-273 459,-273 459,-253 372,-253"/>
<text text-anchor="start" x="400.3413" y="-258.8" font-family="Times,serif" font-size="14.00" fill="#000000">name</text>
<polygon fill="none" stroke="#000000" points="372,-231 372,-251 459,-251 459,-231 372,-231"/>
<text text-anchor="start" x="395.6724" y="-236.8" font-family="Times,serif" font-size="14.00" fill="#000000">subject</text>
<polygon fill="none" stroke="#000000" points="368.5,-228 368.5,-342 461.5,-342 461.5,-228 368.5,-228"/>
</g>
<!-- F&#45;&gt;G -->
<g id="edge7" class="edge">
<title>F&#45;&gt;G</title>
<path fill="none" stroke="#000000" d="M357.1823,-649.9834C359.1013,-638.1848 361.1311,-625.6502 363,-614 377.2447,-525.2046 393.3726,-422.879 403.8387,-356.2312"/>
<polygon fill="#000000" stroke="#000000" points="407.3114,-356.6777 405.4048,-346.2559 400.3961,-355.592 407.3114,-356.6777"/>
</g>
<!-- D&#45;&gt;H -->
<g id="edge4" class="edge">
<title>D&#45;&gt;H</title>
<path fill="none" stroke="#000000" d="M259,-381.8395C259,-369.2435 259,-356.8292 259,-345.3093"/>
<polygon fill="#000000" stroke="#000000" points="262.5001,-345.0015 259,-335.0016 255.5001,-345.0016 262.5001,-345.0015"/>
</g>
<!-- A -->
<g id="node6" class="node">
<title>A</title>
<polygon fill="none" stroke="#000000" points="11,-128 11,-148 143,-148 143,-128 11,-128"/>
<text text-anchor="start" x="51.3413" y="-134.8" font-family="Times,serif" font-weight="bold" font-size="14.00" fill="#000000">Behavior</text>
<polygon fill="none" stroke="#000000" points="11,-106 11,-126 143,-126 143,-106 11,-106"/>
<text text-anchor="start" x="13.8154" y="-112.8" font-family="Times,serif" font-style="italic" font-size="14.00" fill="#000000">school_student_id (fk)</text>
<polygon fill="none" stroke="#000000" points="11,-84 11,-104 143,-104 143,-84 11,-84"/>
<text text-anchor="start" x="23.3516" y="-89.8" font-family="Times,serif" font-size="14.00" fill="#000000">incident_date_time</text>
<polygon fill="none" stroke="#000000" points="11,-62 11,-82 143,-82 143,-62 11,-62"/>
<text text-anchor="start" x="56.3965" y="-67.8" font-family="Times,serif" font-size="14.00" fill="#000000">context</text>
<polygon fill="none" stroke="#000000" points="11,-40 11,-60 143,-60 143,-40 11,-40"/>
<text text-anchor="start" x="61.4482" y="-45.8" font-family="Times,serif" font-size="14.00" fill="#000000">result</text>
<polygon fill="none" stroke="#000000" points="8,-37 8,-151 146,-151 146,-37 8,-37"/>
</g>
<!-- H&#45;&gt;A -->
<g id="edge3" class="edge">
<title>H&#45;&gt;A</title>
<path fill="none" stroke="#000000" d="M208.5476,-234.7725C193.7488,-219.8383 177.6181,-203.3617 163,-188 155.2165,-179.8205 147.1176,-171.1655 139.1386,-162.5499"/>
<polygon fill="#000000" stroke="#000000" points="141.5241,-159.974 132.1686,-155.0016 136.3812,-164.7229 141.5241,-159.974"/>
</g>
<!-- B -->
<g id="node7" class="node">
<title>B</title>
<polygon fill="none" stroke="#000000" points="183,-161 183,-181 315,-181 315,-161 183,-161"/>
<text text-anchor="start" x="217.1274" y="-167.8" font-family="Times,serif" font-weight="bold" font-size="14.00" fill="#000000">Attendance</text>
<polygon fill="none" stroke="#000000" points="183,-139 183,-159 315,-159 315,-139 183,-139"/>
<text text-anchor="start" x="185.8154" y="-145.8" font-family="Times,serif" font-style="italic" font-size="14.00" fill="#000000">school_student_id (fk)</text>
<polygon fill="none" stroke="#000000" points="183,-117 183,-137 315,-137 315,-117 183,-117"/>
<text text-anchor="start" x="203.5171" y="-122.8" font-family="Times,serif" font-size="14.00" fill="#000000">entry_date_time</text>
<polygon fill="none" stroke="#000000" points="183,-95 183,-115 315,-115 315,-95 183,-95"/>
<text text-anchor="start" x="236.9551" y="-100.8" font-family="Times,serif" font-size="14.00" fill="#000000">year</text>
<polygon fill="none" stroke="#000000" points="183,-73 183,-93 315,-93 315,-73 183,-73"/>
<text text-anchor="start" x="236.1724" y="-78.8" font-family="Times,serif" font-size="14.00" fill="#000000">term</text>
<polygon fill="none" stroke="#000000" points="183,-51 183,-71 315,-71 315,-51 183,-51"/>
<text text-anchor="start" x="210.1206" y="-56.8" font-family="Times,serif" font-size="14.00" fill="#000000">total_unexabs</text>
<polygon fill="none" stroke="#000000" points="183,-29 183,-49 315,-49 315,-29 183,-29"/>
<text text-anchor="start" x="217.1206" y="-34.8" font-family="Times,serif" font-size="14.00" fill="#000000">total_exabs</text>
<polygon fill="none" stroke="#000000" points="183,-7 183,-27 315,-27 315,-7 183,-7"/>
<text text-anchor="start" x="214.3999" y="-12.8" font-family="Times,serif" font-size="14.00" fill="#000000">total_tardies</text>
<polygon fill="none" stroke="#000000" points="180,-4 180,-184 318,-184 318,-4 180,-4"/>
</g>
<!-- H&#45;&gt;B -->
<g id="edge1" class="edge">
<title>H&#45;&gt;B</title>
<path fill="none" stroke="#000000" d="M256.3726,-234.817C255.779,-223.4793 255.1273,-211.0323 254.4647,-198.3755"/>
<polygon fill="#000000" stroke="#000000" points="257.9499,-198.0006 253.9318,-188.1973 250.9595,-198.3666 257.9499,-198.0006"/>
</g>
<!-- C -->
<g id="node8" class="node">
<title>C</title>
<polygon fill="none" stroke="#000000" points="355,-150 355,-170 487,-170 487,-150 355,-150"/>
<text text-anchor="start" x="403.8999" y="-156.8" font-family="Times,serif" font-weight="bold" font-size="14.00" fill="#000000">Grade</text>
<polygon fill="none" stroke="#000000" points="355,-128 355,-148 487,-148 487,-128 355,-128"/>
<text text-anchor="start" x="357.8154" y="-134.8" font-family="Times,serif" font-style="italic" font-size="14.00" fill="#000000">school_student_id (fk)</text>
<polygon fill="none" stroke="#000000" points="355,-106 355,-126 487,-126 487,-106 355,-106"/>
<text text-anchor="start" x="381.543" y="-112.8" font-family="Times,serif" font-style="italic" font-size="14.00" fill="#000000">course_id (fk)</text>
<polygon fill="none" stroke="#000000" points="355,-84 355,-104 487,-104 487,-84 355,-84"/>
<text text-anchor="start" x="408.9551" y="-89.8" font-family="Times,serif" font-size="14.00" fill="#000000">year</text>
<polygon fill="none" stroke="#000000" points="355,-62 355,-82 487,-82 487,-62 355,-62"/>
<text text-anchor="start" x="408.1724" y="-67.8" font-family="Times,serif" font-size="14.00" fill="#000000">term</text>
<polygon fill="none" stroke="#000000" points="355,-40 355,-60 487,-60 487,-40 355,-40"/>
<text text-anchor="start" x="375.5171" y="-45.8" font-family="Times,serif" font-size="14.00" fill="#000000">entry_date_time</text>
<polygon fill="none" stroke="#000000" points="355,-18 355,-38 487,-38 487,-18 355,-18"/>
<text text-anchor="start" x="405.4551" y="-23.8" font-family="Times,serif" font-size="14.00" fill="#000000">grade</text>
<polygon fill="none" stroke="#000000" points="352,-15 352,-173 490,-173 490,-15 352,-15"/>
</g>
<!-- H&#45;&gt;C -->
<g id="edge2" class="edge">
<title>H&#45;&gt;C</title>
<path fill="none" stroke="#000000" d="M301.5636,-234.817C314.5708,-219.4813 329.2995,-202.116 343.8614,-184.9474"/>
<polygon fill="#000000" stroke="#000000" points="346.7343,-186.9712 350.5335,-177.0809 341.3959,-182.4433 346.7343,-186.9712"/>
</g>
<!-- G&#45;&gt;C -->
<g id="edge9" class="edge">
<title>G&#45;&gt;C</title>
<path fill="none" stroke="#000000" d="M416.9232,-223.7783C417.2874,-212.1849 417.676,-199.8143 418.0632,-187.4885"/>
<polygon fill="#000000" stroke="#000000" points="421.5717,-187.2683 418.3875,-177.1633 414.5752,-187.0485 421.5717,-187.2683"/>
</g>
</g>
</svg>
