<?xml version="1.0" encoding="UTF-8" standalone="no"?>
<!DOCTYPE svg PUBLIC "-//W3C//DTD SVG 1.1//EN"
 "http://www.w3.org/Graphics/SVG/1.1/DTD/svg11.dtd">
<!-- Generated by graphviz version 2.40.1 (20161225.0304)
 -->
<!-- Title: %3 Pages: 1 -->
<svg width="433pt" height="916pt"
 viewBox="0.00 0.00 433.00 916.00" xmlns="http://www.w3.org/2000/svg" xmlns:xlink="http://www.w3.org/1999/xlink">
<g id="graph0" class="graph" transform="scale(1 1) rotate(0) translate(4 912)">
<title>%3</title>
<polygon fill="#ffffff" stroke="transparent" points="-4,4 -4,-912 429,-912 429,4 -4,4"/>
<!-- E -->
<g id="node1" class="node">
<title>E</title>
<polygon fill="none" stroke="#000000" points="271.5,-881 271.5,-901 360.5,-901 360.5,-881 271.5,-881"/>
<text text-anchor="start" x="295.0034" y="-887.8" font-family="Times,serif" font-weight="bold" font-size="14.00" fill="#000000">District</text>
<polygon fill="none" stroke="#000000" points="271.5,-859 271.5,-879 360.5,-879 360.5,-859 271.5,-859"/>
<text text-anchor="start" x="274.2017" y="-865.8" font-family="Times,serif" font-style="italic" font-size="14.00" fill="#000000">district_id (pk)</text>
<polygon fill="none" stroke="#000000" points="271.5,-837 271.5,-857 360.5,-857 360.5,-837 271.5,-837"/>
<text text-anchor="start" x="302.7861" y="-842.8" font-family="Times,serif" font-size="14.00" fill="#000000">code</text>
<polygon fill="none" stroke="#000000" points="271.5,-815 271.5,-835 360.5,-835 360.5,-815 271.5,-815"/>
<text text-anchor="start" x="303.1724" y="-820.8" font-family="Times,serif" font-size="14.00" fill="#000000">state</text>
<polygon fill="none" stroke="#000000" points="271.5,-793 271.5,-813 360.5,-813 360.5,-793 271.5,-793"/>
<text text-anchor="start" x="305.5034" y="-798.8" font-family="Times,serif" font-size="14.00" fill="#000000">city</text>
<polygon fill="none" stroke="#000000" points="271.5,-771 271.5,-791 360.5,-791 360.5,-771 271.5,-771"/>
<text text-anchor="start" x="294.6172" y="-776.8" font-family="Times,serif" font-size="14.00" fill="#000000">number</text>
<polygon fill="none" stroke="#000000" points="268,-768 268,-904 363,-904 363,-768 268,-768"/>
</g>
<!-- F -->
<g id="node2" class="node">
<title>F</title>
<polygon fill="none" stroke="#000000" points="272.5,-701 272.5,-721 359.5,-721 359.5,-701 272.5,-701"/>
<text text-anchor="start" x="296.5552" y="-707.8" font-family="Times,serif" font-weight="bold" font-size="14.00" fill="#000000">School</text>
<polygon fill="none" stroke="#000000" points="272.5,-679 272.5,-699 359.5,-699 359.5,-679 272.5,-679"/>
<text text-anchor="start" x="275.3672" y="-685.8" font-family="Times,serif" font-style="italic" font-size="14.00" fill="#000000">school_id (pk)</text>
<polygon fill="none" stroke="#000000" points="272.5,-657 272.5,-677 359.5,-677 359.5,-657 272.5,-657"/>
<text text-anchor="start" x="275.3706" y="-663.8" font-family="Times,serif" font-style="italic" font-size="14.00" fill="#000000">district_id (fk)</text>
<polygon fill="none" stroke="#000000" points="272.5,-635 272.5,-655 359.5,-655 359.5,-635 272.5,-635"/>
<text text-anchor="start" x="300.8413" y="-640.8" font-family="Times,serif" font-size="14.00" fill="#000000">name</text>
<polygon fill="none" stroke="#000000" points="269,-632 269,-724 362,-724 362,-632 269,-632"/>
</g>
<!-- E&#45;&gt;F -->
<g id="edge5" class="edge">
<title>E&#45;&gt;F</title>
<path fill="none" stroke="#000000" d="M315.5,-763.9354C315.5,-755.3718 315.5,-746.6987 315.5,-738.3227"/>
<polygon fill="#000000" stroke="#000000" points="319.0001,-738.2805 315.5,-728.2806 312.0001,-738.2806 319.0001,-738.2805"/>
</g>
<!-- D -->
<g id="node3" class="node">
<title>D</title>
<polygon fill="none" stroke="#000000" points="174.5,-565 174.5,-585 276.5,-585 276.5,-565 174.5,-565"/>
<text text-anchor="start" x="204.1104" y="-571.8" font-family="Times,serif" font-weight="bold" font-size="14.00" fill="#000000">Student</text>
<polygon fill="none" stroke="#000000" points="174.5,-543 174.5,-563 276.5,-563 276.5,-543 174.5,-543"/>
<text text-anchor="start" x="182.9224" y="-549.8" font-family="Times,serif" font-style="italic" font-size="14.00" fill="#000000">student_id (pk)</text>
<polygon fill="none" stroke="#000000" points="174.5,-521 174.5,-541 276.5,-541 276.5,-521 174.5,-521"/>
<text text-anchor="start" x="177.4775" y="-527.8" font-family="Times,serif" font-style="italic" font-size="14.00" fill="#000000">school_id (m2m)</text>
<polygon fill="none" stroke="#000000" points="174.5,-499 174.5,-519 276.5,-519 276.5,-499 174.5,-499"/>
<text text-anchor="start" x="195.9482" y="-504.8" font-family="Times,serif" font-size="14.00" fill="#000000">first_name</text>
<polygon fill="none" stroke="#000000" points="174.5,-477 174.5,-497 276.5,-497 276.5,-477 174.5,-477"/>
<text text-anchor="start" x="197.1206" y="-482.8" font-family="Times,serif" font-size="14.00" fill="#000000">last_name</text>
<polygon fill="none" stroke="#000000" points="174.5,-455 174.5,-475 276.5,-475 276.5,-455 174.5,-455"/>
<text text-anchor="start" x="187.3999" y="-460.8" font-family="Times,serif" font-size="14.00" fill="#000000">middle_name</text>
<polygon fill="none" stroke="#000000" points="174.5,-433 174.5,-453 276.5,-453 276.5,-433 174.5,-433"/>
<text text-anchor="start" x="206.4551" y="-438.8" font-family="Times,serif" font-size="14.00" fill="#000000">gender</text>
<polygon fill="none" stroke="#000000" points="174.5,-411 174.5,-431 276.5,-431 276.5,-411 174.5,-411"/>
<text text-anchor="start" x="200.6206" y="-416.8" font-family="Times,serif" font-size="14.00" fill="#000000">birthdate</text>
<polygon fill="none" stroke="#000000" points="174.5,-389 174.5,-409 276.5,-409 276.5,-389 174.5,-389"/>
<text text-anchor="start" x="209.9551" y="-394.8" font-family="Times,serif" font-size="14.00" fill="#000000">grade</text>
<polygon fill="none" stroke="#000000" points="174.5,-367 174.5,-387 276.5,-387 276.5,-367 174.5,-367"/>
<text text-anchor="start" x="203.7275" y="-372.8" font-family="Times,serif" font-size="14.00" fill="#000000">state_id</text>
<polygon fill="none" stroke="#000000" points="171.5,-364 171.5,-588 279.5,-588 279.5,-364 171.5,-364"/>
</g>
<!-- F&#45;&gt;D -->
<g id="edge8" class="edge">
<title>F&#45;&gt;D</title>
<path fill="none" stroke="#000000" d="M293.1372,-627.8079C289.467,-619.5703 285.5251,-610.7229 281.4559,-601.59"/>
<polygon fill="#000000" stroke="#000000" points="284.6166,-600.0838 277.3497,-592.3739 278.2225,-602.9327 284.6166,-600.0838"/>
</g>
<!-- H -->
<g id="node4" class="node">
<title>H</title>
<polygon fill="none" stroke="#000000" points="164.5,-297 164.5,-317 287.5,-317 287.5,-297 164.5,-297"/>
<text text-anchor="start" x="188.8604" y="-303.8" font-family="Times,serif" font-weight="bold" font-size="14.00" fill="#000000">Student Snap</text>
<polygon fill="none" stroke="#000000" points="164.5,-275 164.5,-295 287.5,-295 287.5,-275 164.5,-275"/>
<text text-anchor="start" x="167.0913" y="-281.8" font-family="Times,serif" font-style="italic" font-size="14.00" fill="#000000">student_snap_id (pk)</text>
<polygon fill="none" stroke="#000000" points="164.5,-253 164.5,-273 287.5,-273 287.5,-253 164.5,-253"/>
<text text-anchor="start" x="186.5361" y="-259.8" font-family="Times,serif" font-style="italic" font-size="14.00" fill="#000000">school_id (fk)</text>
<polygon fill="none" stroke="#000000" points="164.5,-231 164.5,-251 287.5,-251 287.5,-231 164.5,-231"/>
<text text-anchor="start" x="184.5913" y="-237.8" font-family="Times,serif" font-style="italic" font-size="14.00" fill="#000000">student_id (fk)</text>
<polygon fill="none" stroke="#000000" points="164.5,-209 164.5,-229 287.5,-229 287.5,-209 164.5,-209"/>
<text text-anchor="start" x="190.2344" y="-214.8" font-family="Times,serif" font-size="14.00" fill="#000000">student_year</text>
<polygon fill="none" stroke="#000000" points="164.5,-187 164.5,-207 287.5,-207 287.5,-187 164.5,-187"/>
<text text-anchor="start" x="189.4517" y="-192.8" font-family="Times,serif" font-size="14.00" fill="#000000">student_term</text>
<polygon fill="none" stroke="#000000" points="161,-184 161,-320 290,-320 290,-184 161,-184"/>
</g>
<!-- F&#45;&gt;H -->
<g id="edge6" class="edge">
<title>F&#45;&gt;H</title>
<path fill="none" stroke="#000000" d="M320.3318,-627.7514C324.7356,-563.7782 326.6108,-450.6736 296.5,-360 293.4821,-350.912 289.4973,-341.8528 284.9518,-333.0652"/>
<polygon fill="#000000" stroke="#000000" points="287.8823,-331.1278 280.0291,-324.0161 281.7333,-334.4729 287.8823,-331.1278"/>
</g>
<!-- G -->
<g id="node5" class="node">
<title>G</title>
<polygon fill="none" stroke="#000000" points="327.5,-286 327.5,-306 414.5,-306 414.5,-286 327.5,-286"/>
<text text-anchor="start" x="351.1689" y="-292.8" font-family="Times,serif" font-weight="bold" font-size="14.00" fill="#000000">Course</text>
<polygon fill="none" stroke="#000000" points="327.5,-264 327.5,-284 414.5,-284 414.5,-264 327.5,-264"/>
<text text-anchor="start" x="330.374" y="-270.8" font-family="Times,serif" font-style="italic" font-size="14.00" fill="#000000">course_id (pk)</text>
<polygon fill="none" stroke="#000000" points="327.5,-242 327.5,-262 414.5,-262 414.5,-242 327.5,-242"/>
<text text-anchor="start" x="331.5361" y="-248.8" font-family="Times,serif" font-style="italic" font-size="14.00" fill="#000000">school_id (fk)</text>
<polygon fill="none" stroke="#000000" points="327.5,-220 327.5,-240 414.5,-240 414.5,-220 327.5,-220"/>
<text text-anchor="start" x="355.8413" y="-225.8" font-family="Times,serif" font-size="14.00" fill="#000000">name</text>
<polygon fill="none" stroke="#000000" points="327.5,-198 327.5,-218 414.5,-218 414.5,-198 327.5,-198"/>
<text text-anchor="start" x="351.1724" y="-203.8" font-family="Times,serif" font-size="14.00" fill="#000000">subject</text>
<polygon fill="none" stroke="#000000" points="324,-195 324,-309 417,-309 417,-195 324,-195"/>
</g>
<!-- F&#45;&gt;G -->
<g id="edge7" class="edge">
<title>F&#45;&gt;G</title>
<path fill="none" stroke="#000000" d="M324.0665,-627.5761C325.9493,-615.9082 327.8666,-603.5328 329.5,-592 342.6047,-499.4707 355.0734,-392.3913 362.7468,-323.511"/>
<polygon fill="#000000" stroke="#000000" points="366.2653,-323.5374 363.8901,-313.2122 359.3081,-322.765 366.2653,-323.5374"/>
</g>
<!-- D&#45;&gt;H -->
<g id="edge4" class="edge">
<title>D&#45;&gt;H</title>
<path fill="none" stroke="#000000" d="M225.5,-359.7353C225.5,-351.1014 225.5,-342.5014 225.5,-334.1409"/>
<polygon fill="#000000" stroke="#000000" points="229.0001,-334.0754 225.5,-324.0754 222.0001,-334.0755 229.0001,-334.0754"/>
</g>
<!-- A -->
<g id="node6" class="node">
<title>A</title>
<polygon fill="none" stroke="#000000" points="11.5,-106 11.5,-126 132.5,-126 132.5,-106 11.5,-106"/>
<text text-anchor="start" x="46.3413" y="-112.8" font-family="Times,serif" font-weight="bold" font-size="14.00" fill="#000000">Behavior</text>
<polygon fill="none" stroke="#000000" points="11.5,-84 11.5,-104 132.5,-104 132.5,-84 11.5,-84"/>
<text text-anchor="start" x="14.2603" y="-90.8" font-family="Times,serif" font-style="italic" font-size="14.00" fill="#000000">student_snap_id (fk)</text>
<polygon fill="none" stroke="#000000" points="11.5,-62 11.5,-82 132.5,-82 132.5,-62 11.5,-62"/>
<text text-anchor="start" x="18.3516" y="-67.8" font-family="Times,serif" font-size="14.00" fill="#000000">incident_date_time</text>
<polygon fill="none" stroke="#000000" points="11.5,-40 11.5,-60 132.5,-60 132.5,-40 11.5,-40"/>
<text text-anchor="start" x="51.3965" y="-45.8" font-family="Times,serif" font-size="14.00" fill="#000000">context</text>
<polygon fill="none" stroke="#000000" points="11.5,-18 11.5,-38 132.5,-38 132.5,-18 11.5,-18"/>
<text text-anchor="start" x="56.4482" y="-23.8" font-family="Times,serif" font-size="14.00" fill="#000000">result</text>
<polygon fill="none" stroke="#000000" points="8,-15 8,-129 135,-129 135,-15 8,-15"/>
</g>
<!-- H&#45;&gt;A -->
<g id="edge3" class="edge">
<title>H&#45;&gt;A</title>
<path fill="none" stroke="#000000" d="M163.7496,-179.8243C152.8007,-167.0268 141.4232,-153.7284 130.5513,-141.021"/>
<polygon fill="#000000" stroke="#000000" points="133.0161,-138.5181 123.8556,-133.1949 127.6971,-143.0688 133.0161,-138.5181"/>
</g>
<!-- B -->
<g id="node7" class="node">
<title>B</title>
<polygon fill="none" stroke="#000000" points="172.5,-117 172.5,-137 293.5,-137 293.5,-117 172.5,-117"/>
<text text-anchor="start" x="201.1274" y="-123.8" font-family="Times,serif" font-weight="bold" font-size="14.00" fill="#000000">Attendance</text>
<polygon fill="none" stroke="#000000" points="172.5,-95 172.5,-115 293.5,-115 293.5,-95 172.5,-95"/>
<text text-anchor="start" x="175.2603" y="-101.8" font-family="Times,serif" font-style="italic" font-size="14.00" fill="#000000">student_snap_id (fk)</text>
<polygon fill="none" stroke="#000000" points="172.5,-73 172.5,-93 293.5,-93 293.5,-73 172.5,-73"/>
<text text-anchor="start" x="187.5171" y="-78.8" font-family="Times,serif" font-size="14.00" fill="#000000">entry_date_time</text>
<polygon fill="none" stroke="#000000" points="172.5,-51 172.5,-71 293.5,-71 293.5,-51 172.5,-51"/>
<text text-anchor="start" x="194.1206" y="-56.8" font-family="Times,serif" font-size="14.00" fill="#000000">total_unexabs</text>
<polygon fill="none" stroke="#000000" points="172.5,-29 172.5,-49 293.5,-49 293.5,-29 172.5,-29"/>
<text text-anchor="start" x="201.1206" y="-34.8" font-family="Times,serif" font-size="14.00" fill="#000000">total_exabs</text>
<polygon fill="none" stroke="#000000" points="172.5,-7 172.5,-27 293.5,-27 293.5,-7 172.5,-7"/>
<text text-anchor="start" x="198.3999" y="-12.8" font-family="Times,serif" font-size="14.00" fill="#000000">total_tardies</text>
<polygon fill="none" stroke="#000000" points="169,-4 169,-140 296,-140 296,-4 169,-4"/>
</g>
<!-- H&#45;&gt;B -->
<g id="edge1" class="edge">
<title>H&#45;&gt;B</title>
<path fill="none" stroke="#000000" d="M228.3068,-179.8243C228.6313,-171.4801 228.9641,-162.9229 229.2934,-154.4555"/>
<polygon fill="#000000" stroke="#000000" points="232.8012,-154.3204 229.6925,-144.1919 225.8065,-154.0483 232.8012,-154.3204"/>
</g>
<!-- C -->
<g id="node8" class="node">
<title>C</title>
<text text-anchor="middle" x="363.5" y="-67.8" font-family="Times,serif" font-size="14.00" fill="#000000">C</text>
</g>
<!-- H&#45;&gt;C -->
<g id="edge2" class="edge">
<title>H&#45;&gt;C</title>
<path fill="none" stroke="#000000" d="M284.6205,-179.8686C294.0693,-167.9818 303.6444,-155.7168 312.5,-144 323.6376,-129.2639 335.5985,-112.4352 345.1359,-98.7549"/>
<polygon fill="#000000" stroke="#000000" points="348.1957,-100.4846 351.0203,-90.2732 342.4443,-96.4943 348.1957,-100.4846"/>
</g>
<!-- G&#45;&gt;C -->
<g id="edge9" class="edge">
<title>G&#45;&gt;C</title>
<path fill="none" stroke="#000000" d="M368.1204,-190.809C366.9311,-160.2287 365.549,-124.6877 364.6084,-100.5024"/>
<polygon fill="#000000" stroke="#000000" points="368.0957,-100.1044 364.2096,-90.248 361.101,-100.3765 368.0957,-100.1044"/>
</g>
</g>
</svg>
