<?xml version="1.0" encoding="UTF-8" standalone="no"?>
<!DOCTYPE svg PUBLIC "-//W3C//DTD SVG 1.1//EN"
 "http://www.w3.org/Graphics/SVG/1.1/DTD/svg11.dtd">
<!-- Generated by graphviz version 2.40.1 (20161225.0304)
 -->
<!-- Title: %3 Pages: 1 -->
<svg width="426pt" height="710pt"
 viewBox="0.00 0.00 425.93 710.00" xmlns="http://www.w3.org/2000/svg" xmlns:xlink="http://www.w3.org/1999/xlink">
<g id="graph0" class="graph" transform="scale(1 1) rotate(0) translate(4 706)">
<title>%3</title>
<polygon fill="#ffffff" stroke="transparent" points="-4,4 -4,-706 421.9337,-706 421.9337,4 -4,4"/>
<!-- A -->
<g id="node1" class="node">
<title>A</title>
<polygon fill="none" stroke="#000000" points="42.4337,-352 42.4337,-372 155.4337,-372 155.4337,-352 42.4337,-352"/>
<text text-anchor="start" x="73.275" y="-358.8" font-family="Times,serif" font-weight="bold" font-size="14.00" fill="#000000">Behavior</text>
<polygon fill="none" stroke="#000000" points="42.4337,-330 42.4337,-350 155.4337,-350 155.4337,-330 42.4337,-330"/>
<text text-anchor="start" x="69.7681" y="-335.8" font-family="Times,serif" font-size="14.00" fill="#000000">student_id</text>
<polygon fill="none" stroke="#000000" points="42.4337,-308 42.4337,-328 155.4337,-328 155.4337,-308 42.4337,-308"/>
<text text-anchor="start" x="71.7129" y="-314.8" font-family="Times,serif" font-style="italic" font-size="14.00" fill="#000000">school_id</text>
<polygon fill="none" stroke="#000000" points="42.4337,-286 42.4337,-306 155.4337,-306 155.4337,-286 42.4337,-286"/>
<text text-anchor="start" x="45.2852" y="-291.8" font-family="Times,serif" font-size="14.00" fill="#000000">incident_date_time</text>
<polygon fill="none" stroke="#000000" points="42.4337,-264 42.4337,-284 155.4337,-284 155.4337,-264 42.4337,-264"/>
<text text-anchor="start" x="78.3301" y="-269.8" font-family="Times,serif" font-size="14.00" fill="#000000">context</text>
<polygon fill="none" stroke="#000000" points="42.4337,-242 42.4337,-262 155.4337,-262 155.4337,-242 42.4337,-242"/>
<text text-anchor="start" x="83.3819" y="-247.8" font-family="Times,serif" font-size="14.00" fill="#000000">result</text>
<polygon fill="none" stroke="#000000" points="38.9337,-239 38.9337,-375 157.9337,-375 157.9337,-239 38.9337,-239"/>
</g>
<!-- B -->
<g id="node2" class="node">
<title>B</title>
<polygon fill="none" stroke="#000000" points="195.4337,-385 195.4337,-405 291.4337,-405 291.4337,-385 195.4337,-385"/>
<text text-anchor="start" x="211.5611" y="-391.8" font-family="Times,serif" font-weight="bold" font-size="14.00" fill="#000000">Attendance</text>
<polygon fill="none" stroke="#000000" points="195.4337,-363 195.4337,-383 291.4337,-383 291.4337,-363 195.4337,-363"/>
<text text-anchor="start" x="200.856" y="-369.8" font-family="Times,serif" font-style="italic" font-size="14.00" fill="#000000">student_id (pk)</text>
<polygon fill="none" stroke="#000000" points="195.4337,-341 195.4337,-361 291.4337,-361 291.4337,-341 195.4337,-341"/>
<text text-anchor="start" x="216.2129" y="-346.8" font-family="Times,serif" font-size="14.00" fill="#000000">school_id</text>
<polygon fill="none" stroke="#000000" points="195.4337,-319 195.4337,-339 291.4337,-339 291.4337,-319 195.4337,-319"/>
<text text-anchor="start" x="197.9507" y="-324.8" font-family="Times,serif" font-size="14.00" fill="#000000">entry_date_time</text>
<polygon fill="none" stroke="#000000" points="195.4337,-297 195.4337,-317 291.4337,-317 291.4337,-297 195.4337,-297"/>
<text text-anchor="start" x="231.3887" y="-302.8" font-family="Times,serif" font-size="14.00" fill="#000000">year</text>
<polygon fill="none" stroke="#000000" points="195.4337,-275 195.4337,-295 291.4337,-295 291.4337,-275 195.4337,-275"/>
<text text-anchor="start" x="230.606" y="-280.8" font-family="Times,serif" font-size="14.00" fill="#000000">term</text>
<polygon fill="none" stroke="#000000" points="195.4337,-253 195.4337,-273 291.4337,-273 291.4337,-253 195.4337,-253"/>
<text text-anchor="start" x="204.5543" y="-258.8" font-family="Times,serif" font-size="14.00" fill="#000000">total_unexabs</text>
<polygon fill="none" stroke="#000000" points="195.4337,-231 195.4337,-251 291.4337,-251 291.4337,-231 195.4337,-231"/>
<text text-anchor="start" x="211.5543" y="-236.8" font-family="Times,serif" font-size="14.00" fill="#000000">total_exabs</text>
<polygon fill="none" stroke="#000000" points="195.4337,-209 195.4337,-229 291.4337,-229 291.4337,-209 195.4337,-209"/>
<text text-anchor="start" x="208.8336" y="-214.8" font-family="Times,serif" font-size="14.00" fill="#000000">total_tardies</text>
<polygon fill="none" stroke="#000000" points="192.4337,-206 192.4337,-408 294.4337,-408 294.4337,-206 192.4337,-206"/>
</g>
<!-- C -->
<g id="node3" class="node">
<title>C</title>
<polygon fill="none" stroke="#000000" points="134.4337,-139 134.4337,-159 230.4337,-159 230.4337,-139 134.4337,-139"/>
<text text-anchor="start" x="165.3336" y="-145.8" font-family="Times,serif" font-weight="bold" font-size="14.00" fill="#000000">Grade</text>
<polygon fill="none" stroke="#000000" points="134.4337,-117 134.4337,-137 230.4337,-137 230.4337,-117 134.4337,-117"/>
<text text-anchor="start" x="139.856" y="-123.8" font-family="Times,serif" font-style="italic" font-size="14.00" fill="#000000">student_id (pk)</text>
<polygon fill="none" stroke="#000000" points="134.4337,-95 134.4337,-115 230.4337,-115 230.4337,-95 134.4337,-95"/>
<text text-anchor="start" x="155.2198" y="-100.8" font-family="Times,serif" font-size="14.00" fill="#000000">course_id</text>
<polygon fill="none" stroke="#000000" points="134.4337,-73 134.4337,-93 230.4337,-93 230.4337,-73 134.4337,-73"/>
<text text-anchor="start" x="170.3887" y="-78.8" font-family="Times,serif" font-size="14.00" fill="#000000">year</text>
<polygon fill="none" stroke="#000000" points="134.4337,-51 134.4337,-71 230.4337,-71 230.4337,-51 134.4337,-51"/>
<text text-anchor="start" x="169.606" y="-56.8" font-family="Times,serif" font-size="14.00" fill="#000000">term</text>
<polygon fill="none" stroke="#000000" points="134.4337,-29 134.4337,-49 230.4337,-49 230.4337,-29 134.4337,-29"/>
<text text-anchor="start" x="136.9507" y="-34.8" font-family="Times,serif" font-size="14.00" fill="#000000">entry_date_time</text>
<polygon fill="none" stroke="#000000" points="134.4337,-7 134.4337,-27 230.4337,-27 230.4337,-7 134.4337,-7"/>
<text text-anchor="start" x="166.8887" y="-12.8" font-family="Times,serif" font-size="14.00" fill="#000000">grade</text>
<polygon fill="none" stroke="#000000" points="131.4337,-4 131.4337,-162 233.4337,-162 233.4337,-4 131.4337,-4"/>
</g>
<!-- D -->
<g id="node4" class="node">
<title>D</title>
<polygon fill="none" stroke="#000000" points="53.4337,-675 53.4337,-695 144.4337,-695 144.4337,-675 53.4337,-675"/>
<text text-anchor="start" x="77.544" y="-681.8" font-family="Times,serif" font-weight="bold" font-size="14.00" fill="#000000">Student</text>
<polygon fill="none" stroke="#000000" points="53.4337,-653 53.4337,-673 144.4337,-673 144.4337,-653 53.4337,-653"/>
<text text-anchor="start" x="56.356" y="-659.8" font-family="Times,serif" font-style="italic" font-size="14.00" fill="#000000">student_id (pk)</text>
<polygon fill="none" stroke="#000000" points="53.4337,-631 53.4337,-651 144.4337,-651 144.4337,-631 53.4337,-631"/>
<text text-anchor="start" x="69.3819" y="-636.8" font-family="Times,serif" font-size="14.00" fill="#000000">first_name</text>
<polygon fill="none" stroke="#000000" points="53.4337,-609 53.4337,-629 144.4337,-629 144.4337,-609 53.4337,-609"/>
<text text-anchor="start" x="70.5543" y="-614.8" font-family="Times,serif" font-size="14.00" fill="#000000">last_name</text>
<polygon fill="none" stroke="#000000" points="53.4337,-587 53.4337,-607 144.4337,-607 144.4337,-587 53.4337,-587"/>
<text text-anchor="start" x="60.8336" y="-592.8" font-family="Times,serif" font-size="14.00" fill="#000000">middle_name</text>
<polygon fill="none" stroke="#000000" points="53.4337,-565 53.4337,-585 144.4337,-585 144.4337,-565 53.4337,-565"/>
<text text-anchor="start" x="79.8887" y="-570.8" font-family="Times,serif" font-size="14.00" fill="#000000">gender</text>
<polygon fill="none" stroke="#000000" points="53.4337,-543 53.4337,-563 144.4337,-563 144.4337,-543 53.4337,-543"/>
<text text-anchor="start" x="74.0543" y="-548.8" font-family="Times,serif" font-size="14.00" fill="#000000">birthdate</text>
<polygon fill="none" stroke="#000000" points="53.4337,-521 53.4337,-541 144.4337,-541 144.4337,-521 53.4337,-521"/>
<text text-anchor="start" x="83.3887" y="-526.8" font-family="Times,serif" font-size="14.00" fill="#000000">grade</text>
<polygon fill="none" stroke="#000000" points="53.4337,-499 53.4337,-519 144.4337,-519 144.4337,-499 53.4337,-499"/>
<text text-anchor="start" x="77.1612" y="-504.8" font-family="Times,serif" font-size="14.00" fill="#000000">state_id</text>
<polygon fill="none" stroke="#000000" points="53.4337,-477 53.4337,-497 144.4337,-497 144.4337,-477 53.4337,-477"/>
<text text-anchor="start" x="71.7129" y="-482.8" font-family="Times,serif" font-size="14.00" fill="#000000">school_id</text>
<polygon fill="none" stroke="#000000" points="53.4337,-455 53.4337,-475 144.4337,-475 144.4337,-455 53.4337,-455"/>
<text text-anchor="start" x="70.5474" y="-460.8" font-family="Times,serif" font-size="14.00" fill="#000000">district_id</text>
<polygon fill="none" stroke="#000000" points="49.9337,-452 49.9337,-698 146.9337,-698 146.9337,-452 49.9337,-452"/>
</g>
<!-- D&#45;&gt;A -->
<g id="edge3" class="edge">
<title>D&#45;&gt;A</title>
<path fill="none" stroke="#000000" d="M98.4337,-447.6714C98.4337,-427.8436 98.4337,-407.8205 98.4337,-389.3445"/>
<polygon fill="#000000" stroke="#000000" points="101.9338,-389.2502 98.4337,-379.2502 94.9338,-389.2502 101.9338,-389.2502"/>
</g>
<!-- D&#45;&gt;B -->
<g id="edge1" class="edge">
<title>D&#45;&gt;B</title>
<path fill="none" stroke="#000000" d="M155.1174,-470.2328C163.8299,-454.1297 172.8628,-437.4345 181.6788,-421.14"/>
<polygon fill="#000000" stroke="#000000" points="184.8706,-422.5957 186.5509,-412.135 178.7139,-419.2647 184.8706,-422.5957"/>
</g>
<!-- D&#45;&gt;C -->
<g id="edge2" class="edge">
<title>D&#45;&gt;C</title>
<path fill="none" stroke="#000000" d="M41.7805,-470.4806C7.8681,-392.9168 -21.1481,-286.4242 21.4337,-202 40.9033,-163.3987 79.4617,-134.2152 113.9628,-114.4107"/>
<polygon fill="#000000" stroke="#000000" points="116.0627,-117.2475 123.0984,-109.326 112.6584,-111.1311 116.0627,-117.2475"/>
</g>
<!-- E -->
<g id="node5" class="node">
<title>E</title>
<polygon fill="none" stroke="#000000" points="318.4337,-631 318.4337,-651 407.4337,-651 407.4337,-631 318.4337,-631"/>
<text text-anchor="start" x="341.9371" y="-637.8" font-family="Times,serif" font-weight="bold" font-size="14.00" fill="#000000">District</text>
<polygon fill="none" stroke="#000000" points="318.4337,-609 318.4337,-629 407.4337,-629 407.4337,-609 318.4337,-609"/>
<text text-anchor="start" x="321.1353" y="-615.8" font-family="Times,serif" font-style="italic" font-size="14.00" fill="#000000">district_id (pk)</text>
<polygon fill="none" stroke="#000000" points="318.4337,-587 318.4337,-607 407.4337,-607 407.4337,-587 318.4337,-587"/>
<text text-anchor="start" x="347.775" y="-592.8" font-family="Times,serif" font-size="14.00" fill="#000000">name</text>
<polygon fill="none" stroke="#000000" points="318.4337,-565 318.4337,-585 407.4337,-585 407.4337,-565 318.4337,-565"/>
<text text-anchor="start" x="350.106" y="-570.8" font-family="Times,serif" font-size="14.00" fill="#000000">state</text>
<polygon fill="none" stroke="#000000" points="318.4337,-543 318.4337,-563 407.4337,-563 407.4337,-543 318.4337,-543"/>
<text text-anchor="start" x="352.4371" y="-548.8" font-family="Times,serif" font-size="14.00" fill="#000000">city</text>
<polygon fill="none" stroke="#000000" points="318.4337,-521 318.4337,-541 407.4337,-541 407.4337,-521 318.4337,-521"/>
<text text-anchor="start" x="341.5508" y="-526.8" font-family="Times,serif" font-size="14.00" fill="#000000">number</text>
<polygon fill="none" stroke="#000000" points="318.4337,-499 318.4337,-519 407.4337,-519 407.4337,-499 318.4337,-499"/>
<text text-anchor="start" x="331.0611" y="-504.8" font-family="Times,serif" font-size="14.00" fill="#000000">name_code</text>
<polygon fill="none" stroke="#000000" points="314.9337,-496 314.9337,-654 409.9337,-654 409.9337,-496 314.9337,-496"/>
</g>
<!-- G -->
<g id="node7" class="node">
<title>G</title>
<polygon fill="none" stroke="#000000" points="331.4337,-352 331.4337,-372 393.4337,-372 393.4337,-352 331.4337,-352"/>
<text text-anchor="start" x="342.6026" y="-358.8" font-family="Times,serif" font-weight="bold" font-size="14.00" fill="#000000">Course</text>
<polygon fill="none" stroke="#000000" points="331.4337,-330 331.4337,-350 393.4337,-350 393.4337,-330 331.4337,-330"/>
<text text-anchor="start" x="335.2198" y="-335.8" font-family="Times,serif" font-size="14.00" fill="#000000">course_id</text>
<polygon fill="none" stroke="#000000" points="331.4337,-308 331.4337,-328 393.4337,-328 393.4337,-308 331.4337,-308"/>
<text text-anchor="start" x="347.275" y="-313.8" font-family="Times,serif" font-size="14.00" fill="#000000">name</text>
<polygon fill="none" stroke="#000000" points="331.4337,-286 331.4337,-306 393.4337,-306 393.4337,-286 331.4337,-286"/>
<text text-anchor="start" x="342.606" y="-291.8" font-family="Times,serif" font-size="14.00" fill="#000000">subject</text>
<polygon fill="none" stroke="#000000" points="331.4337,-264 331.4337,-284 393.4337,-284 393.4337,-264 331.4337,-264"/>
<text text-anchor="start" x="335.2129" y="-269.8" font-family="Times,serif" font-size="14.00" fill="#000000">school_id</text>
<polygon fill="none" stroke="#000000" points="331.4337,-242 331.4337,-262 393.4337,-262 393.4337,-242 331.4337,-242"/>
<text text-anchor="start" x="334.0474" y="-247.8" font-family="Times,serif" font-size="14.00" fill="#000000">district_id</text>
<polygon fill="none" stroke="#000000" points="328.4337,-239 328.4337,-375 396.4337,-375 396.4337,-239 328.4337,-239"/>
</g>
<!-- E&#45;&gt;G -->
<g id="edge4" class="edge">
<title>E&#45;&gt;G</title>
<path fill="none" stroke="#000000" d="M362.4337,-491.6722C362.4337,-459.2279 362.4337,-422.1358 362.4337,-389.7474"/>
<polygon fill="#000000" stroke="#000000" points="365.9337,-389.4087 362.4337,-379.4088 358.9337,-389.4088 365.9337,-389.4087"/>
</g>
<!-- F -->
<g id="node6" class="node">
<title>F</title>
<polygon fill="none" stroke="#000000" points="212.4337,-598 212.4337,-618 274.4337,-618 274.4337,-598 212.4337,-598"/>
<text text-anchor="start" x="223.9888" y="-604.8" font-family="Times,serif" font-weight="bold" font-size="14.00" fill="#000000">School</text>
<polygon fill="none" stroke="#000000" points="212.4337,-576 212.4337,-596 274.4337,-596 274.4337,-576 212.4337,-576"/>
<text text-anchor="start" x="216.2129" y="-581.8" font-family="Times,serif" font-size="14.00" fill="#000000">school_id</text>
<polygon fill="none" stroke="#000000" points="212.4337,-554 212.4337,-574 274.4337,-574 274.4337,-554 212.4337,-554"/>
<text text-anchor="start" x="228.275" y="-559.8" font-family="Times,serif" font-size="14.00" fill="#000000">name</text>
<polygon fill="none" stroke="#000000" points="212.4337,-532 212.4337,-552 274.4337,-552 274.4337,-532 212.4337,-532"/>
<text text-anchor="start" x="215.0474" y="-537.8" font-family="Times,serif" font-size="14.00" fill="#000000">district_id</text>
<polygon fill="none" stroke="#000000" points="209.4337,-529 209.4337,-621 277.4337,-621 277.4337,-529 209.4337,-529"/>
</g>
<!-- F&#45;&gt;A -->
<g id="edge6" class="edge">
<title>F&#45;&gt;A</title>
<path fill="none" stroke="#000000" d="M216.3304,-524.9056C195.5484,-486.4949 166.4393,-432.6932 142.3457,-388.1616"/>
<polygon fill="#000000" stroke="#000000" points="145.2788,-386.2276 137.4418,-379.0979 139.1222,-389.5587 145.2788,-386.2276"/>
</g>
<!-- F&#45;&gt;B -->
<g id="edge7" class="edge">
<title>F&#45;&gt;B</title>
<path fill="none" stroke="#000000" d="M243.4337,-524.9056C243.4337,-495.8936 243.4337,-458.1012 243.4337,-422.1548"/>
<polygon fill="#000000" stroke="#000000" points="246.9338,-422.0738 243.4337,-412.0738 239.9338,-422.0738 246.9338,-422.0738"/>
</g>
<!-- F&#45;&gt;G -->
<g id="edge5" class="edge">
<title>F&#45;&gt;G</title>
<path fill="none" stroke="#000000" d="M264.9148,-524.8475C274.996,-501.4531 287.2325,-473.2594 298.4337,-448 306.9947,-428.6943 316.3283,-407.9594 325.1541,-388.4905"/>
<polygon fill="#000000" stroke="#000000" points="328.3584,-389.8991 329.3041,-379.3466 321.9842,-387.0061 328.3584,-389.8991"/>
</g>
<!-- G&#45;&gt;C -->
<g id="edge8" class="edge">
<title>G&#45;&gt;C</title>
<path fill="none" stroke="#000000" d="M331.8677,-234.87C325.7813,-223.4456 318.9264,-212.0862 311.4337,-202 293.7171,-178.1515 270.7827,-155.2067 249.1752,-135.9369"/>
<polygon fill="#000000" stroke="#000000" points="251.4205,-133.2507 241.5984,-129.2788 246.7998,-138.509 251.4205,-133.2507"/>
</g>
</g>
</svg>
