<?xml version="1.0" encoding="UTF-8" standalone="no"?>
<!DOCTYPE svg PUBLIC "-//W3C//DTD SVG 1.1//EN"
 "http://www.w3.org/Graphics/SVG/1.1/DTD/svg11.dtd">
<!-- Generated by graphviz version 2.40.1 (20161225.0304)
 -->
<!-- Title: %3 Pages: 1 -->
<svg width="542pt" height="802pt"
 viewBox="0.00 0.00 542.00 802.00" xmlns="http://www.w3.org/2000/svg" xmlns:xlink="http://www.w3.org/1999/xlink">
<g id="graph0" class="graph" transform="scale(1 1) rotate(0) translate(4 798)">
<title>%3</title>
<polygon fill="#ffffff" stroke="transparent" points="-4,4 -4,-798 538,-798 538,4 -4,4"/>
<!-- E -->
<g id="node1" class="node">
<title>E</title>
<polygon fill="none" stroke="#000000" points="345,-767 345,-787 434,-787 434,-767 345,-767"/>
<text text-anchor="start" x="368.5034" y="-773.8" font-family="Times,serif" font-weight="bold" font-size="14.00" fill="#000000">District</text>
<polygon fill="none" stroke="#000000" points="345,-745 345,-765 434,-765 434,-745 345,-745"/>
<text text-anchor="start" x="347.7017" y="-751.8" font-family="Times,serif" font-style="italic" font-size="14.00" fill="#000000">district_id (pk)</text>
<polygon fill="none" stroke="#000000" points="345,-723 345,-743 434,-743 434,-723 345,-723"/>
<text text-anchor="start" x="374.3413" y="-728.8" font-family="Times,serif" font-size="14.00" fill="#000000">name</text>
<polygon fill="none" stroke="#000000" points="345,-701 345,-721 434,-721 434,-701 345,-701"/>
<text text-anchor="start" x="376.6724" y="-706.8" font-family="Times,serif" font-size="14.00" fill="#000000">state</text>
<polygon fill="none" stroke="#000000" points="345,-679 345,-699 434,-699 434,-679 345,-679"/>
<text text-anchor="start" x="379.0034" y="-684.8" font-family="Times,serif" font-size="14.00" fill="#000000">city</text>
<polygon fill="none" stroke="#000000" points="345,-657 345,-677 434,-677 434,-657 345,-657"/>
<text text-anchor="start" x="368.1172" y="-662.8" font-family="Times,serif" font-size="14.00" fill="#000000">number</text>
<polygon fill="none" stroke="#000000" points="345,-635 345,-655 434,-655 434,-635 345,-635"/>
<text text-anchor="start" x="357.6274" y="-640.8" font-family="Times,serif" font-size="14.00" fill="#000000">name_code</text>
<polygon fill="none" stroke="#000000" points="341.5,-632 341.5,-790 436.5,-790 436.5,-632 341.5,-632"/>
</g>
<!-- F -->
<g id="node2" class="node">
<title>F</title>
<polygon fill="none" stroke="#000000" points="346,-565 346,-585 433,-585 433,-565 346,-565"/>
<text text-anchor="start" x="370.0552" y="-571.8" font-family="Times,serif" font-weight="bold" font-size="14.00" fill="#000000">School</text>
<polygon fill="none" stroke="#000000" points="346,-543 346,-563 433,-563 433,-543 346,-543"/>
<text text-anchor="start" x="348.8672" y="-549.8" font-family="Times,serif" font-style="italic" font-size="14.00" fill="#000000">school_id (pk)</text>
<polygon fill="none" stroke="#000000" points="346,-521 346,-541 433,-541 433,-521 346,-521"/>
<text text-anchor="start" x="348.8706" y="-527.8" font-family="Times,serif" font-style="italic" font-size="14.00" fill="#000000">district_id (fk)</text>
<polygon fill="none" stroke="#000000" points="346,-499 346,-519 433,-519 433,-499 346,-499"/>
<text text-anchor="start" x="374.3413" y="-504.8" font-family="Times,serif" font-size="14.00" fill="#000000">name</text>
<polygon fill="none" stroke="#000000" points="342.5,-496 342.5,-588 435.5,-588 435.5,-496 342.5,-496"/>
</g>
<!-- E&#45;&gt;F -->
<g id="edge4" class="edge">
<title>E&#45;&gt;F</title>
<path fill="none" stroke="#000000" d="M389,-627.9853C389,-619.416 389,-610.8264 389,-602.5691"/>
<polygon fill="#000000" stroke="#000000" points="392.5001,-602.314 389,-592.3141 385.5001,-602.3141 392.5001,-602.314"/>
</g>
<!-- D -->
<g id="node3" class="node">
<title>D</title>
<polygon fill="none" stroke="#000000" points="271,-429 271,-449 373,-449 373,-429 271,-429"/>
<text text-anchor="start" x="300.6104" y="-435.8" font-family="Times,serif" font-weight="bold" font-size="14.00" fill="#000000">Student</text>
<polygon fill="none" stroke="#000000" points="271,-407 271,-427 373,-427 373,-407 271,-407"/>
<text text-anchor="start" x="279.4224" y="-413.8" font-family="Times,serif" font-style="italic" font-size="14.00" fill="#000000">student_id (pk)</text>
<polygon fill="none" stroke="#000000" points="271,-385 271,-405 373,-405 373,-385 271,-385"/>
<text text-anchor="start" x="273.9775" y="-391.8" font-family="Times,serif" font-style="italic" font-size="14.00" fill="#000000">school_id (m2m)</text>
<polygon fill="none" stroke="#000000" points="271,-363 271,-383 373,-383 373,-363 271,-363"/>
<text text-anchor="start" x="292.4482" y="-368.8" font-family="Times,serif" font-size="14.00" fill="#000000">first_name</text>
<polygon fill="none" stroke="#000000" points="271,-341 271,-361 373,-361 373,-341 271,-341"/>
<text text-anchor="start" x="293.6206" y="-346.8" font-family="Times,serif" font-size="14.00" fill="#000000">last_name</text>
<polygon fill="none" stroke="#000000" points="271,-319 271,-339 373,-339 373,-319 271,-319"/>
<text text-anchor="start" x="283.8999" y="-324.8" font-family="Times,serif" font-size="14.00" fill="#000000">middle_name</text>
<polygon fill="none" stroke="#000000" points="271,-297 271,-317 373,-317 373,-297 271,-297"/>
<text text-anchor="start" x="302.9551" y="-302.8" font-family="Times,serif" font-size="14.00" fill="#000000">gender</text>
<polygon fill="none" stroke="#000000" points="271,-275 271,-295 373,-295 373,-275 271,-275"/>
<text text-anchor="start" x="297.1206" y="-280.8" font-family="Times,serif" font-size="14.00" fill="#000000">birthdate</text>
<polygon fill="none" stroke="#000000" points="271,-253 271,-273 373,-273 373,-253 271,-253"/>
<text text-anchor="start" x="306.4551" y="-258.8" font-family="Times,serif" font-size="14.00" fill="#000000">grade</text>
<polygon fill="none" stroke="#000000" points="271,-231 271,-251 373,-251 373,-231 271,-231"/>
<text text-anchor="start" x="300.2275" y="-236.8" font-family="Times,serif" font-size="14.00" fill="#000000">state_id</text>
<polygon fill="none" stroke="#000000" points="268,-228 268,-452 376,-452 376,-228 268,-228"/>
</g>
<!-- F&#45;&gt;D -->
<g id="edge6" class="edge">
<title>F&#45;&gt;D</title>
<path fill="none" stroke="#000000" d="M372.3521,-491.8079C369.6483,-483.6561 366.7464,-474.9072 363.7507,-465.8753"/>
<polygon fill="#000000" stroke="#000000" points="367.0695,-464.7635 360.5992,-456.3739 360.4255,-466.9673 367.0695,-464.7635"/>
</g>
<!-- G -->
<g id="node4" class="node">
<title>G</title>
<polygon fill="none" stroke="#000000" points="423,-374 423,-394 510,-394 510,-374 423,-374"/>
<text text-anchor="start" x="446.6689" y="-380.8" font-family="Times,serif" font-weight="bold" font-size="14.00" fill="#000000">Course</text>
<polygon fill="none" stroke="#000000" points="423,-352 423,-372 510,-372 510,-352 423,-352"/>
<text text-anchor="start" x="425.874" y="-358.8" font-family="Times,serif" font-style="italic" font-size="14.00" fill="#000000">course_id (pk)</text>
<polygon fill="none" stroke="#000000" points="423,-330 423,-350 510,-350 510,-330 423,-330"/>
<text text-anchor="start" x="427.0361" y="-336.8" font-family="Times,serif" font-style="italic" font-size="14.00" fill="#000000">school_id (fk)</text>
<polygon fill="none" stroke="#000000" points="423,-308 423,-328 510,-328 510,-308 423,-308"/>
<text text-anchor="start" x="451.3413" y="-313.8" font-family="Times,serif" font-size="14.00" fill="#000000">name</text>
<polygon fill="none" stroke="#000000" points="423,-286 423,-306 510,-306 510,-286 423,-286"/>
<text text-anchor="start" x="446.6724" y="-291.8" font-family="Times,serif" font-size="14.00" fill="#000000">subject</text>
<polygon fill="none" stroke="#000000" points="419.5,-283 419.5,-397 512.5,-397 512.5,-283 419.5,-283"/>
</g>
<!-- F&#45;&gt;G -->
<g id="edge5" class="edge">
<title>F&#45;&gt;G</title>
<path fill="none" stroke="#000000" d="M408.1326,-491.8079C417.4547,-467.3525 428.8253,-437.5234 439.0117,-410.8005"/>
<polygon fill="#000000" stroke="#000000" points="442.4136,-411.7023 442.705,-401.1114 435.8727,-409.2089 442.4136,-411.7023"/>
</g>
<!-- A -->
<g id="node5" class="node">
<title>A</title>
<polygon fill="none" stroke="#000000" points="11,-128 11,-148 181,-148 181,-128 11,-128"/>
<text text-anchor="start" x="70.3413" y="-134.8" font-family="Times,serif" font-weight="bold" font-size="14.00" fill="#000000">Behavior</text>
<polygon fill="none" stroke="#000000" points="11,-106 11,-126 181,-126 181,-106 11,-106"/>
<text text-anchor="start" x="13.7637" y="-112.8" font-family="Times,serif" font-style="italic" font-size="14.00" fill="#000000">student_id and school_id (fk)</text>
<polygon fill="none" stroke="#000000" points="11,-84 11,-104 181,-104 181,-84 11,-84"/>
<text text-anchor="start" x="42.3516" y="-89.8" font-family="Times,serif" font-size="14.00" fill="#000000">incident_date_time</text>
<polygon fill="none" stroke="#000000" points="11,-62 11,-82 181,-82 181,-62 11,-62"/>
<text text-anchor="start" x="75.3965" y="-67.8" font-family="Times,serif" font-size="14.00" fill="#000000">context</text>
<polygon fill="none" stroke="#000000" points="11,-40 11,-60 181,-60 181,-40 11,-40"/>
<text text-anchor="start" x="80.4482" y="-45.8" font-family="Times,serif" font-size="14.00" fill="#000000">result</text>
<polygon fill="none" stroke="#000000" points="8,-37 8,-151 184,-151 184,-37 8,-37"/>
</g>
<!-- D&#45;&gt;A -->
<g id="edge3" class="edge">
<title>D&#45;&gt;A</title>
<path fill="none" stroke="#000000" d="M259.9456,-272.454C228.6023,-238.337 190.6451,-197.0208 159.1498,-162.7383"/>
<polygon fill="#000000" stroke="#000000" points="161.4632,-160.083 152.1204,-155.0868 156.3083,-164.8188 161.4632,-160.083"/>
</g>
<!-- B -->
<g id="node6" class="node">
<title>B</title>
<polygon fill="none" stroke="#000000" points="221,-161 221,-181 387,-181 387,-161 221,-161"/>
<text text-anchor="start" x="272.1274" y="-167.8" font-family="Times,serif" font-weight="bold" font-size="14.00" fill="#000000">Attendance</text>
<polygon fill="none" stroke="#000000" points="221,-139 221,-159 387,-159 387,-139 221,-139"/>
<text text-anchor="start" x="223.5137" y="-145.8" font-family="Times,serif" font-style="italic" font-size="14.00" fill="#000000">student_id and school_id(fk)</text>
<polygon fill="none" stroke="#000000" points="221,-117 221,-137 387,-137 387,-117 221,-117"/>
<text text-anchor="start" x="258.5171" y="-122.8" font-family="Times,serif" font-size="14.00" fill="#000000">entry_date_time</text>
<polygon fill="none" stroke="#000000" points="221,-95 221,-115 387,-115 387,-95 221,-95"/>
<text text-anchor="start" x="291.9551" y="-100.8" font-family="Times,serif" font-size="14.00" fill="#000000">year</text>
<polygon fill="none" stroke="#000000" points="221,-73 221,-93 387,-93 387,-73 221,-73"/>
<text text-anchor="start" x="291.1724" y="-78.8" font-family="Times,serif" font-size="14.00" fill="#000000">term</text>
<polygon fill="none" stroke="#000000" points="221,-51 221,-71 387,-71 387,-51 221,-51"/>
<text text-anchor="start" x="265.1206" y="-56.8" font-family="Times,serif" font-size="14.00" fill="#000000">total_unexabs</text>
<polygon fill="none" stroke="#000000" points="221,-29 221,-49 387,-49 387,-29 221,-29"/>
<text text-anchor="start" x="272.1206" y="-34.8" font-family="Times,serif" font-size="14.00" fill="#000000">total_exabs</text>
<polygon fill="none" stroke="#000000" points="221,-7 221,-27 387,-27 387,-7 221,-7"/>
<text text-anchor="start" x="269.3999" y="-12.8" font-family="Times,serif" font-size="14.00" fill="#000000">total_tardies</text>
<polygon fill="none" stroke="#000000" points="218,-4 218,-184 390,-184 390,-4 218,-4"/>
</g>
<!-- D&#45;&gt;B -->
<g id="edge1" class="edge">
<title>D&#45;&gt;B</title>
<path fill="none" stroke="#000000" d="M313.5007,-223.8435C312.8795,-215.353 312.255,-206.8189 311.6393,-198.4036"/>
<polygon fill="#000000" stroke="#000000" points="315.1138,-197.9267 310.8933,-188.2088 308.1325,-198.4375 315.1138,-197.9267"/>
</g>
<!-- C -->
<g id="node7" class="node">
<title>C</title>
<polygon fill="none" stroke="#000000" points="427,-150 427,-170 523,-170 523,-150 427,-150"/>
<text text-anchor="start" x="457.8999" y="-156.8" font-family="Times,serif" font-weight="bold" font-size="14.00" fill="#000000">Grade</text>
<polygon fill="none" stroke="#000000" points="427,-128 427,-148 523,-148 523,-128 427,-128"/>
<text text-anchor="start" x="433.5913" y="-134.8" font-family="Times,serif" font-style="italic" font-size="14.00" fill="#000000">student_id (fk)</text>
<polygon fill="none" stroke="#000000" points="427,-106 427,-126 523,-126 523,-106 427,-106"/>
<text text-anchor="start" x="435.543" y="-112.8" font-family="Times,serif" font-style="italic" font-size="14.00" fill="#000000">course_id (fk)</text>
<polygon fill="none" stroke="#000000" points="427,-84 427,-104 523,-104 523,-84 427,-84"/>
<text text-anchor="start" x="462.9551" y="-89.8" font-family="Times,serif" font-size="14.00" fill="#000000">year</text>
<polygon fill="none" stroke="#000000" points="427,-62 427,-82 523,-82 523,-62 427,-62"/>
<text text-anchor="start" x="462.1724" y="-67.8" font-family="Times,serif" font-size="14.00" fill="#000000">term</text>
<polygon fill="none" stroke="#000000" points="427,-40 427,-60 523,-60 523,-40 427,-40"/>
<text text-anchor="start" x="429.5171" y="-45.8" font-family="Times,serif" font-size="14.00" fill="#000000">entry_date_time</text>
<polygon fill="none" stroke="#000000" points="427,-18 427,-38 523,-38 523,-18 427,-18"/>
<text text-anchor="start" x="459.4551" y="-23.8" font-family="Times,serif" font-size="14.00" fill="#000000">grade</text>
<polygon fill="none" stroke="#000000" points="424,-15 424,-173 526,-173 526,-15 424,-15"/>
</g>
<!-- D&#45;&gt;C -->
<g id="edge2" class="edge">
<title>D&#45;&gt;C</title>
<path fill="none" stroke="#000000" d="M384.0104,-240.297C395.1866,-222.3275 406.791,-203.6694 417.8219,-185.9334"/>
<polygon fill="#000000" stroke="#000000" points="420.8772,-187.6479 423.1866,-177.3078 414.9331,-183.951 420.8772,-187.6479"/>
</g>
<!-- G&#45;&gt;C -->
<g id="edge7" class="edge">
<title>G&#45;&gt;C</title>
<path fill="none" stroke="#000000" d="M468.2363,-278.8749C469.2466,-251.2604 470.4627,-218.0197 471.5835,-187.3849"/>
<polygon fill="#000000" stroke="#000000" points="475.0914,-187.2288 471.9595,-177.1075 468.0961,-186.9728 475.0914,-187.2288"/>
</g>
</g>
</svg>
