<?xml version="1.0" encoding="UTF-8" standalone="no"?>
<!DOCTYPE svg PUBLIC "-//W3C//DTD SVG 1.1//EN"
 "http://www.w3.org/Graphics/SVG/1.1/DTD/svg11.dtd">
<!-- Generated by graphviz version 2.40.1 (20161225.0304)
 -->
<!-- Title: %3 Pages: 1 -->
<svg width="640pt" height="574pt"
 viewBox="0.00 0.00 639.50 574.00" xmlns="http://www.w3.org/2000/svg" xmlns:xlink="http://www.w3.org/1999/xlink">
<g id="graph0" class="graph" transform="scale(1 1) rotate(0) translate(4 570)">
<title>%3</title>
<polygon fill="#ffffff" stroke="transparent" points="-4,4 -4,-570 635.5,-570 635.5,4 -4,4"/>
<!-- A -->
<g id="node1" class="node">
<title>A</title>
<polygon fill="none" stroke="#000000" points="310,-539 310,-559 406,-559 406,-539 310,-539"/>
<text text-anchor="start" x="323.1982" y="-545.8" font-family="Times,serif" font-weight="bold" font-size="14.00" fill="#000000">Student Info</text>
<polygon fill="none" stroke="#000000" points="310,-517 310,-537 406,-537 406,-517 310,-517"/>
<text text-anchor="start" x="316.981" y="-522.8" font-family="Times,serif" font-size="14.00" fill="#000000">person_id (pk)</text>
<polygon fill="none" stroke="#000000" points="310,-495 310,-515 406,-515 406,-495 310,-495"/>
<text text-anchor="start" x="336.2275" y="-501.8" font-family="Times,serif" font-style="italic" font-size="14.00" fill="#000000">state_id</text>
<polygon fill="none" stroke="#000000" points="310,-473 310,-493 406,-493 406,-473 310,-473"/>
<text text-anchor="start" x="312.8965" y="-478.8" font-family="Times,serif" font-size="14.00" fill="#000000">student_number</text>
<polygon fill="none" stroke="#000000" points="310,-451 310,-471 406,-471 406,-451 310,-451"/>
<text text-anchor="start" x="329.6206" y="-456.8" font-family="Times,serif" font-size="14.00" fill="#000000">last_name</text>
<polygon fill="none" stroke="#000000" points="310,-429 310,-449 406,-449 406,-429 310,-429"/>
<text text-anchor="start" x="328.4482" y="-434.8" font-family="Times,serif" font-size="14.00" fill="#000000">first_name</text>
<polygon fill="none" stroke="#000000" points="310,-407 310,-427 406,-427 406,-407 310,-407"/>
<text text-anchor="start" x="319.8999" y="-412.8" font-family="Times,serif" font-size="14.00" fill="#000000">middle_name</text>
<polygon fill="none" stroke="#000000" points="310,-385 310,-405 406,-405 406,-385 310,-385"/>
<text text-anchor="start" x="338.9551" y="-390.8" font-family="Times,serif" font-size="14.00" fill="#000000">gender</text>
<polygon fill="none" stroke="#000000" points="310,-363 310,-383 406,-383 406,-363 310,-363"/>
<text text-anchor="start" x="333.1206" y="-368.8" font-family="Times,serif" font-size="14.00" fill="#000000">birthdate</text>
<polygon fill="none" stroke="#000000" points="310,-341 310,-361 406,-361 406,-341 310,-341"/>
<text text-anchor="start" x="342.4551" y="-346.8" font-family="Times,serif" font-size="14.00" fill="#000000">grade</text>
<polygon fill="none" stroke="#000000" points="310,-319 310,-339 406,-339 406,-319 310,-319"/>
<text text-anchor="start" x="330.7793" y="-324.8" font-family="Times,serif" font-size="14.00" fill="#000000">school_id</text>
<polygon fill="none" stroke="#000000" points="310,-297 310,-317 406,-317 406,-297 310,-297"/>
<text text-anchor="start" x="329.6138" y="-302.8" font-family="Times,serif" font-size="14.00" fill="#000000">district_id</text>
<polygon fill="none" stroke="#000000" points="307,-294 307,-562 409,-562 409,-294 307,-294"/>
</g>
<!-- B -->
<g id="node2" class="node">
<title>B</title>
<polygon fill="none" stroke="#000000" points="11,-227 11,-247 155,-247 155,-227 11,-227"/>
<text text-anchor="start" x="57.3413" y="-233.8" font-family="Times,serif" font-weight="bold" font-size="14.00" fill="#000000">Behavior</text>
<polygon fill="none" stroke="#000000" points="11,-205 11,-225 155,-225 155,-205 11,-205"/>
<text text-anchor="start" x="41.981" y="-211.8" font-family="Times,serif" font-style="italic" font-size="14.00" fill="#000000">person_id (pk)</text>
<polygon fill="none" stroke="#000000" points="11,-183 11,-203 155,-203 155,-183 11,-183"/>
<text text-anchor="start" x="62.3965" y="-188.8" font-family="Times,serif" font-size="14.00" fill="#000000">context</text>
<polygon fill="none" stroke="#000000" points="11,-161 11,-181 155,-181 155,-161 11,-161"/>
<text text-anchor="start" x="27.793" y="-166.8" font-family="Times,serif" font-size="14.00" fill="#000000">context_description</text>
<polygon fill="none" stroke="#000000" points="11,-139 11,-159 155,-159 155,-139 11,-139"/>
<text text-anchor="start" x="45.293" y="-144.8" font-family="Times,serif" font-size="14.00" fill="#000000">incident_date</text>
<polygon fill="none" stroke="#000000" points="11,-117 11,-137 155,-137 155,-117 11,-117"/>
<text text-anchor="start" x="51.5068" y="-122.8" font-family="Times,serif" font-size="14.00" fill="#000000">incident_id</text>
<polygon fill="none" stroke="#000000" points="11,-95 11,-115 155,-115 155,-95 11,-95"/>
<text text-anchor="start" x="60.4517" y="-100.8" font-family="Times,serif" font-size="14.00" fill="#000000">location</text>
<polygon fill="none" stroke="#000000" points="11,-73 11,-93 155,-93 155,-73 11,-73"/>
<text text-anchor="start" x="25.8481" y="-78.8" font-family="Times,serif" font-size="14.00" fill="#000000">location_description</text>
<polygon fill="none" stroke="#000000" points="11,-51 11,-71 155,-71 155,-51 11,-51"/>
<text text-anchor="start" x="67.0552" y="-56.8" font-family="Times,serif" font-size="14.00" fill="#000000">status</text>
<polygon fill="none" stroke="#000000" points="11,-29 11,-49 155,-49 155,-29 11,-29"/>
<text text-anchor="start" x="53.8379" y="-34.8" font-family="Times,serif" font-size="14.00" fill="#000000">timestamp</text>
<polygon fill="none" stroke="#000000" points="11,-7 11,-27 155,-27 155,-7 11,-7"/>
<text text-anchor="start" x="13.7827" y="-12.8" font-family="Times,serif" font-size="14.00" fill="#000000">submitted_by_person_id</text>
<polygon fill="none" stroke="#000000" points="8,-4 8,-250 158,-250 158,-4 8,-4"/>
</g>
<!-- A&#45;&gt;B -->
<g id="edge1" class="edge">
<title>A&#45;&gt;B</title>
<path fill="none" stroke="#000000" d="M298.8659,-376.862C261.647,-343.4739 213.5367,-298.048 175,-254 174.2605,-253.1548 173.521,-252.3038 172.7816,-251.4475"/>
<polygon fill="#000000" stroke="#000000" points="175.272,-248.9726 166.1359,-243.6076 169.9323,-253.499 175.272,-248.9726"/>
</g>
<!-- C -->
<g id="node3" class="node">
<title>C</title>
<polygon fill="none" stroke="#000000" points="196,-172 196,-192 357,-192 357,-172 196,-172"/>
<text text-anchor="start" x="244.6274" y="-178.8" font-family="Times,serif" font-weight="bold" font-size="14.00" fill="#000000">Attendance</text>
<polygon fill="none" stroke="#000000" points="196,-150 196,-170 357,-170 357,-150 196,-150"/>
<text text-anchor="start" x="235.481" y="-156.8" font-family="Times,serif" font-style="italic" font-size="14.00" fill="#000000">person_id (pk)</text>
<polygon fill="none" stroke="#000000" points="196,-128 196,-148 357,-148 357,-128 196,-128"/>
<text text-anchor="start" x="210.4136" y="-133.8" font-family="Times,serif" font-size="14.00" fill="#000000">term1_period_absences</text>
<polygon fill="none" stroke="#000000" points="196,-106 196,-126 357,-126 357,-106 196,-106"/>
<text text-anchor="start" x="205.7515" y="-111.8" font-family="Times,serif" font-size="14.00" fill="#000000">term1_absences_excused</text>
<polygon fill="none" stroke="#000000" points="196,-84 196,-104 357,-104 357,-84 196,-84"/>
<text text-anchor="start" x="198.7515" y="-89.8" font-family="Times,serif" font-size="14.00" fill="#000000">term1_absences_unexcused</text>
<polygon fill="none" stroke="#000000" points="196,-62 196,-82 357,-82 357,-62 196,-62"/>
<text text-anchor="start" x="238.0137" y="-67.8" font-family="Times,serif" font-size="14.00" fill="#000000">term1_tardies</text>
<polygon fill="none" stroke="#000000" points="192.5,-59 192.5,-195 359.5,-195 359.5,-59 192.5,-59"/>
</g>
<!-- A&#45;&gt;C -->
<g id="edge2" class="edge">
<title>A&#45;&gt;C</title>
<path fill="none" stroke="#000000" d="M320.3599,-289.8334C312.8147,-262.1369 305.1167,-233.8797 298.2973,-208.8474"/>
<polygon fill="#000000" stroke="#000000" points="301.6359,-207.7865 295.6305,-199.0581 294.8821,-209.6265 301.6359,-207.7865"/>
</g>
<!-- D -->
<g id="node4" class="node">
<title>D</title>
<polygon fill="none" stroke="#000000" points="397,-150 397,-170 485,-170 485,-150 397,-150"/>
<text text-anchor="start" x="427.6392" y="-156.8" font-family="Times,serif" font-weight="bold" font-size="14.00" fill="#000000">GPA</text>
<polygon fill="none" stroke="#000000" points="397,-128 397,-148 485,-148 485,-128 397,-128"/>
<text text-anchor="start" x="399.981" y="-134.8" font-family="Times,serif" font-style="italic" font-size="14.00" fill="#000000">person_id (pk)</text>
<polygon fill="none" stroke="#000000" points="397,-106 397,-126 485,-126 485,-106 397,-106"/>
<text text-anchor="start" x="408.3516" y="-111.8" font-family="Times,serif" font-size="14.00" fill="#000000">calender_id</text>
<polygon fill="none" stroke="#000000" points="397,-84 397,-104 485,-104 485,-84 397,-84"/>
<text text-anchor="start" x="411.0654" y="-89.8" font-family="Times,serif" font-size="14.00" fill="#000000">term1_gpa</text>
<polygon fill="none" stroke="#000000" points="394,-81 394,-173 488,-173 488,-81 394,-81"/>
</g>
<!-- A&#45;&gt;D -->
<g id="edge3" class="edge">
<title>A&#45;&gt;D</title>
<path fill="none" stroke="#000000" d="M396.0991,-289.8334C406.0539,-253.7323 416.2714,-216.6783 424.4399,-187.0555"/>
<polygon fill="#000000" stroke="#000000" points="427.8439,-187.8771 427.1281,-177.3065 421.0957,-186.0163 427.8439,-187.8771"/>
</g>
<!-- E -->
<g id="node5" class="node">
<title>E</title>
<polygon fill="none" stroke="#000000" points="526,-183 526,-203 621,-203 621,-183 526,-183"/>
<text text-anchor="start" x="552.1172" y="-189.8" font-family="Times,serif" font-weight="bold" font-size="14.00" fill="#000000">grading</text>
<polygon fill="none" stroke="#000000" points="526,-161 526,-181 621,-181 621,-161 526,-161"/>
<text text-anchor="start" x="532.481" y="-167.8" font-family="Times,serif" font-style="italic" font-size="14.00" fill="#000000">person_id (pk)</text>
<polygon fill="none" stroke="#000000" points="526,-139 526,-159 621,-159 621,-139 526,-139"/>
<text text-anchor="start" x="544.7275" y="-144.8" font-family="Times,serif" font-size="14.00" fill="#000000">section_id</text>
<polygon fill="none" stroke="#000000" points="526,-117 526,-137 621,-137 621,-117 526,-117"/>
<text text-anchor="start" x="546.2861" y="-122.8" font-family="Times,serif" font-size="14.00" fill="#000000">course_id</text>
<polygon fill="none" stroke="#000000" points="526,-95 526,-115 621,-115 621,-95 526,-95"/>
<text text-anchor="start" x="530.3481" y="-100.8" font-family="Times,serif" font-size="14.00" fill="#000000">course_number</text>
<polygon fill="none" stroke="#000000" points="526,-73 526,-93 621,-93 621,-73 526,-73"/>
<text text-anchor="start" x="536.5723" y="-78.8" font-family="Times,serif" font-size="14.00" fill="#000000">course_name</text>
<polygon fill="none" stroke="#000000" points="526,-51 526,-71 621,-71 621,-51 526,-51"/>
<text text-anchor="start" x="528.7896" y="-56.8" font-family="Times,serif" font-size="14.00" fill="#000000">section_number</text>
<polygon fill="none" stroke="#000000" points="522.5,-48 522.5,-206 623.5,-206 623.5,-48 522.5,-48"/>
</g>
<!-- A&#45;&gt;E -->
<g id="edge4" class="edge">
<title>A&#45;&gt;E</title>
<path fill="none" stroke="#000000" d="M417.2426,-364.4793C445.505,-332.5889 478.7851,-292.6043 505,-254 512.5185,-242.9281 519.8651,-230.9358 526.7829,-218.8917"/>
<polygon fill="#000000" stroke="#000000" points="529.8647,-220.5524 531.7408,-210.125 523.7715,-217.1065 529.8647,-220.5524"/>
</g>
</g>
</svg>
