<?xml version="1.0" encoding="UTF-8" standalone="no"?>
<!DOCTYPE svg PUBLIC "-//W3C//DTD SVG 1.1//EN"
 "http://www.w3.org/Graphics/SVG/1.1/DTD/svg11.dtd">
<!-- Generated by graphviz version 2.40.1 (20161225.0304)
 -->
<!-- Title: %3 Pages: 1 -->
<svg width="416pt" height="824pt"
 viewBox="0.00 0.00 415.50 824.00" xmlns="http://www.w3.org/2000/svg" xmlns:xlink="http://www.w3.org/1999/xlink">
<g id="graph0" class="graph" transform="scale(1 1) rotate(0) translate(4 820)">
<title>%3</title>
<polygon fill="#ffffff" stroke="transparent" points="-4,4 -4,-820 411.5,-820 411.5,4 -4,4"/>
<!-- A -->
<g id="node1" class="node">
<title>A</title>
<polygon fill="none" stroke="#000000" points="11.5,-150 11.5,-170 124.5,-170 124.5,-150 11.5,-150"/>
<text text-anchor="start" x="42.3413" y="-156.8" font-family="Times,serif" font-weight="bold" font-size="14.00" fill="#000000">Behavior</text>
<polygon fill="none" stroke="#000000" points="11.5,-128 11.5,-148 124.5,-148 124.5,-128 11.5,-128"/>
<text text-anchor="start" x="26.5913" y="-134.8" font-family="Times,serif" font-style="italic" font-size="14.00" fill="#000000">student_id (fk)</text>
<polygon fill="none" stroke="#000000" points="11.5,-106 11.5,-126 124.5,-126 124.5,-106 11.5,-106"/>
<text text-anchor="start" x="28.5361" y="-112.8" font-family="Times,serif" font-style="italic" font-size="14.00" fill="#000000">school_id (fk)</text>
<polygon fill="none" stroke="#000000" points="11.5,-84 11.5,-104 124.5,-104 124.5,-84 11.5,-84"/>
<text text-anchor="start" x="14.3516" y="-89.8" font-family="Times,serif" font-size="14.00" fill="#000000">incident_date_time</text>
<polygon fill="none" stroke="#000000" points="11.5,-62 11.5,-82 124.5,-82 124.5,-62 11.5,-62"/>
<text text-anchor="start" x="47.3965" y="-67.8" font-family="Times,serif" font-size="14.00" fill="#000000">context</text>
<polygon fill="none" stroke="#000000" points="11.5,-40 11.5,-60 124.5,-60 124.5,-40 11.5,-40"/>
<text text-anchor="start" x="52.4482" y="-45.8" font-family="Times,serif" font-size="14.00" fill="#000000">result</text>
<polygon fill="none" stroke="#000000" points="8,-37 8,-173 127,-173 127,-37 8,-37"/>
</g>
<!-- B -->
<g id="node2" class="node">
<title>B</title>
<polygon fill="none" stroke="#000000" points="164.5,-183 164.5,-203 260.5,-203 260.5,-183 164.5,-183"/>
<text text-anchor="start" x="180.6274" y="-189.8" font-family="Times,serif" font-weight="bold" font-size="14.00" fill="#000000">Attendance</text>
<polygon fill="none" stroke="#000000" points="164.5,-161 164.5,-181 260.5,-181 260.5,-161 164.5,-161"/>
<text text-anchor="start" x="171.0913" y="-167.8" font-family="Times,serif" font-style="italic" font-size="14.00" fill="#000000">student_id (fk)</text>
<polygon fill="none" stroke="#000000" points="164.5,-139 164.5,-159 260.5,-159 260.5,-139 164.5,-139"/>
<text text-anchor="start" x="174.7861" y="-145.8" font-family="Times,serif" font-style="italic" font-size="14.00" fill="#000000">school_id(fk)</text>
<polygon fill="none" stroke="#000000" points="164.5,-117 164.5,-137 260.5,-137 260.5,-117 164.5,-117"/>
<text text-anchor="start" x="167.0171" y="-122.8" font-family="Times,serif" font-size="14.00" fill="#000000">entry_date_time</text>
<polygon fill="none" stroke="#000000" points="164.5,-95 164.5,-115 260.5,-115 260.5,-95 164.5,-95"/>
<text text-anchor="start" x="200.4551" y="-100.8" font-family="Times,serif" font-size="14.00" fill="#000000">year</text>
<polygon fill="none" stroke="#000000" points="164.5,-73 164.5,-93 260.5,-93 260.5,-73 164.5,-73"/>
<text text-anchor="start" x="199.6724" y="-78.8" font-family="Times,serif" font-size="14.00" fill="#000000">term</text>
<polygon fill="none" stroke="#000000" points="164.5,-51 164.5,-71 260.5,-71 260.5,-51 164.5,-51"/>
<text text-anchor="start" x="173.6206" y="-56.8" font-family="Times,serif" font-size="14.00" fill="#000000">total_unexabs</text>
<polygon fill="none" stroke="#000000" points="164.5,-29 164.5,-49 260.5,-49 260.5,-29 164.5,-29"/>
<text text-anchor="start" x="180.6206" y="-34.8" font-family="Times,serif" font-size="14.00" fill="#000000">total_exabs</text>
<polygon fill="none" stroke="#000000" points="164.5,-7 164.5,-27 260.5,-27 260.5,-7 164.5,-7"/>
<text text-anchor="start" x="177.8999" y="-12.8" font-family="Times,serif" font-size="14.00" fill="#000000">total_tardies</text>
<polygon fill="none" stroke="#000000" points="161.5,-4 161.5,-206 263.5,-206 263.5,-4 161.5,-4"/>
</g>
<!-- C -->
<g id="node3" class="node">
<title>C</title>
<polygon fill="none" stroke="#000000" points="300.5,-161 300.5,-181 396.5,-181 396.5,-161 300.5,-161"/>
<text text-anchor="start" x="331.3999" y="-167.8" font-family="Times,serif" font-weight="bold" font-size="14.00" fill="#000000">Grade</text>
<polygon fill="none" stroke="#000000" points="300.5,-139 300.5,-159 396.5,-159 396.5,-139 300.5,-139"/>
<text text-anchor="start" x="307.0913" y="-145.8" font-family="Times,serif" font-style="italic" font-size="14.00" fill="#000000">student_id (fk)</text>
<polygon fill="none" stroke="#000000" points="300.5,-117 300.5,-137 396.5,-137 396.5,-117 300.5,-117"/>
<text text-anchor="start" x="309.043" y="-123.8" font-family="Times,serif" font-style="italic" font-size="14.00" fill="#000000">course_id (fk)</text>
<polygon fill="none" stroke="#000000" points="300.5,-95 300.5,-115 396.5,-115 396.5,-95 300.5,-95"/>
<text text-anchor="start" x="336.4551" y="-100.8" font-family="Times,serif" font-size="14.00" fill="#000000">year</text>
<polygon fill="none" stroke="#000000" points="300.5,-73 300.5,-93 396.5,-93 396.5,-73 300.5,-73"/>
<text text-anchor="start" x="335.6724" y="-78.8" font-family="Times,serif" font-size="14.00" fill="#000000">term</text>
<polygon fill="none" stroke="#000000" points="300.5,-51 300.5,-71 396.5,-71 396.5,-51 300.5,-51"/>
<text text-anchor="start" x="303.0171" y="-56.8" font-family="Times,serif" font-size="14.00" fill="#000000">entry_date_time</text>
<polygon fill="none" stroke="#000000" points="300.5,-29 300.5,-49 396.5,-49 396.5,-29 300.5,-29"/>
<text text-anchor="start" x="332.9551" y="-34.8" font-family="Times,serif" font-size="14.00" fill="#000000">grade</text>
<polygon fill="none" stroke="#000000" points="297.5,-26 297.5,-184 399.5,-184 399.5,-26 297.5,-26"/>
</g>
<!-- D -->
<g id="node4" class="node">
<title>D</title>
<polygon fill="none" stroke="#000000" points="119.5,-451 119.5,-471 221.5,-471 221.5,-451 119.5,-451"/>
<text text-anchor="start" x="149.1104" y="-457.8" font-family="Times,serif" font-weight="bold" font-size="14.00" fill="#000000">Student</text>
<polygon fill="none" stroke="#000000" points="119.5,-429 119.5,-449 221.5,-449 221.5,-429 119.5,-429"/>
<text text-anchor="start" x="127.9224" y="-435.8" font-family="Times,serif" font-style="italic" font-size="14.00" fill="#000000">student_id (pk)</text>
<polygon fill="none" stroke="#000000" points="119.5,-407 119.5,-427 221.5,-427 221.5,-407 119.5,-407"/>
<text text-anchor="start" x="122.4775" y="-413.8" font-family="Times,serif" font-style="italic" font-size="14.00" fill="#000000">school_id (m2m)</text>
<polygon fill="none" stroke="#000000" points="119.5,-385 119.5,-405 221.5,-405 221.5,-385 119.5,-385"/>
<text text-anchor="start" x="140.9482" y="-390.8" font-family="Times,serif" font-size="14.00" fill="#000000">first_name</text>
<polygon fill="none" stroke="#000000" points="119.5,-363 119.5,-383 221.5,-383 221.5,-363 119.5,-363"/>
<text text-anchor="start" x="142.1206" y="-368.8" font-family="Times,serif" font-size="14.00" fill="#000000">last_name</text>
<polygon fill="none" stroke="#000000" points="119.5,-341 119.5,-361 221.5,-361 221.5,-341 119.5,-341"/>
<text text-anchor="start" x="132.3999" y="-346.8" font-family="Times,serif" font-size="14.00" fill="#000000">middle_name</text>
<polygon fill="none" stroke="#000000" points="119.5,-319 119.5,-339 221.5,-339 221.5,-319 119.5,-319"/>
<text text-anchor="start" x="151.4551" y="-324.8" font-family="Times,serif" font-size="14.00" fill="#000000">gender</text>
<polygon fill="none" stroke="#000000" points="119.5,-297 119.5,-317 221.5,-317 221.5,-297 119.5,-297"/>
<text text-anchor="start" x="145.6206" y="-302.8" font-family="Times,serif" font-size="14.00" fill="#000000">birthdate</text>
<polygon fill="none" stroke="#000000" points="119.5,-275 119.5,-295 221.5,-295 221.5,-275 119.5,-275"/>
<text text-anchor="start" x="154.9551" y="-280.8" font-family="Times,serif" font-size="14.00" fill="#000000">grade</text>
<polygon fill="none" stroke="#000000" points="119.5,-253 119.5,-273 221.5,-273 221.5,-253 119.5,-253"/>
<text text-anchor="start" x="148.7275" y="-258.8" font-family="Times,serif" font-size="14.00" fill="#000000">state_id</text>
<polygon fill="none" stroke="#000000" points="116.5,-250 116.5,-474 224.5,-474 224.5,-250 116.5,-250"/>
</g>
<!-- D&#45;&gt;A -->
<g id="edge3" class="edge">
<title>D&#45;&gt;A</title>
<path fill="none" stroke="#000000" d="M123.9721,-245.9061C115.9453,-225.8781 107.7559,-205.4443 100.1936,-186.5753"/>
<polygon fill="#000000" stroke="#000000" points="103.3872,-185.1353 96.4182,-177.1551 96.8896,-187.7394 103.3872,-185.1353"/>
</g>
<!-- D&#45;&gt;B -->
<g id="edge1" class="edge">
<title>D&#45;&gt;B</title>
<path fill="none" stroke="#000000" d="M189.4725,-245.9061C190.8631,-237.3969 192.2657,-228.8145 193.6556,-220.3099"/>
<polygon fill="#000000" stroke="#000000" points="197.1211,-220.8047 195.2798,-210.3711 190.2127,-219.6756 197.1211,-220.8047"/>
</g>
<!-- D&#45;&gt;C -->
<g id="edge2" class="edge">
<title>D&#45;&gt;C</title>
<path fill="none" stroke="#000000" d="M232.6641,-277.7346C248.4908,-255.8383 265.3133,-232.1711 280.5,-210 283.5299,-205.5766 286.6079,-201.0298 289.6964,-196.4247"/>
<polygon fill="#000000" stroke="#000000" points="292.621,-198.3475 295.259,-188.0863 286.7978,-194.4628 292.621,-198.3475"/>
</g>
<!-- E -->
<g id="node5" class="node">
<title>E</title>
<polygon fill="none" stroke="#000000" points="171.5,-789 171.5,-809 260.5,-809 260.5,-789 171.5,-789"/>
<text text-anchor="start" x="195.0034" y="-795.8" font-family="Times,serif" font-weight="bold" font-size="14.00" fill="#000000">District</text>
<polygon fill="none" stroke="#000000" points="171.5,-767 171.5,-787 260.5,-787 260.5,-767 171.5,-767"/>
<text text-anchor="start" x="174.2017" y="-773.8" font-family="Times,serif" font-style="italic" font-size="14.00" fill="#000000">district_id (pk)</text>
<polygon fill="none" stroke="#000000" points="171.5,-745 171.5,-765 260.5,-765 260.5,-745 171.5,-745"/>
<text text-anchor="start" x="200.8413" y="-750.8" font-family="Times,serif" font-size="14.00" fill="#000000">name</text>
<polygon fill="none" stroke="#000000" points="171.5,-723 171.5,-743 260.5,-743 260.5,-723 171.5,-723"/>
<text text-anchor="start" x="203.1724" y="-728.8" font-family="Times,serif" font-size="14.00" fill="#000000">state</text>
<polygon fill="none" stroke="#000000" points="171.5,-701 171.5,-721 260.5,-721 260.5,-701 171.5,-701"/>
<text text-anchor="start" x="205.5034" y="-706.8" font-family="Times,serif" font-size="14.00" fill="#000000">city</text>
<polygon fill="none" stroke="#000000" points="171.5,-679 171.5,-699 260.5,-699 260.5,-679 171.5,-679"/>
<text text-anchor="start" x="194.6172" y="-684.8" font-family="Times,serif" font-size="14.00" fill="#000000">number</text>
<polygon fill="none" stroke="#000000" points="171.5,-657 171.5,-677 260.5,-677 260.5,-657 171.5,-657"/>
<text text-anchor="start" x="184.1274" y="-662.8" font-family="Times,serif" font-size="14.00" fill="#000000">name_code</text>
<polygon fill="none" stroke="#000000" points="168,-654 168,-812 263,-812 263,-654 168,-654"/>
</g>
<!-- F -->
<g id="node6" class="node">
<title>F</title>
<polygon fill="none" stroke="#000000" points="172.5,-587 172.5,-607 259.5,-607 259.5,-587 172.5,-587"/>
<text text-anchor="start" x="196.5552" y="-593.8" font-family="Times,serif" font-weight="bold" font-size="14.00" fill="#000000">School</text>
<polygon fill="none" stroke="#000000" points="172.5,-565 172.5,-585 259.5,-585 259.5,-565 172.5,-565"/>
<text text-anchor="start" x="175.3672" y="-571.8" font-family="Times,serif" font-style="italic" font-size="14.00" fill="#000000">school_id (pk)</text>
<polygon fill="none" stroke="#000000" points="172.5,-543 172.5,-563 259.5,-563 259.5,-543 172.5,-543"/>
<text text-anchor="start" x="175.3706" y="-549.8" font-family="Times,serif" font-style="italic" font-size="14.00" fill="#000000">district_id (fk)</text>
<polygon fill="none" stroke="#000000" points="172.5,-521 172.5,-541 259.5,-541 259.5,-521 172.5,-521"/>
<text text-anchor="start" x="200.8413" y="-526.8" font-family="Times,serif" font-size="14.00" fill="#000000">name</text>
<polygon fill="none" stroke="#000000" points="169,-518 169,-610 262,-610 262,-518 169,-518"/>
</g>
<!-- E&#45;&gt;F -->
<g id="edge4" class="edge">
<title>E&#45;&gt;F</title>
<path fill="none" stroke="#000000" d="M215.5,-649.9853C215.5,-641.416 215.5,-632.8264 215.5,-624.5691"/>
<polygon fill="#000000" stroke="#000000" points="219.0001,-624.314 215.5,-614.3141 212.0001,-624.3141 219.0001,-624.314"/>
</g>
<!-- F&#45;&gt;A -->
<g id="edge6" class="edge">
<title>F&#45;&gt;A</title>
<path fill="none" stroke="#000000" d="M160.8822,-537.0066C137.9592,-522.7371 113.4322,-502.9537 99.5,-478 49.2896,-388.0687 48.9804,-266.5443 56.0323,-187.0028"/>
<polygon fill="#000000" stroke="#000000" points="59.518,-187.3179 56.9742,-177.033 52.549,-186.6594 59.518,-187.3179"/>
</g>
<!-- F&#45;&gt;B -->
<g id="edge7" class="edge">
<title>F&#45;&gt;B</title>
<path fill="none" stroke="#000000" d="M233.4144,-513.6313C236.7702,-502.0706 239.7661,-489.727 241.5,-478 256.5818,-375.9978 251.9399,-348.5812 241.5,-246 240.6359,-237.5096 239.4864,-228.7755 238.1428,-220.0136"/>
<polygon fill="#000000" stroke="#000000" points="241.5951,-219.4367 236.5484,-210.121 234.6843,-220.5506 241.5951,-219.4367"/>
</g>
<!-- F&#45;&gt;D -->
<g id="edge8" class="edge">
<title>F&#45;&gt;D</title>
<path fill="none" stroke="#000000" d="M204.3186,-513.8079C202.5217,-505.7419 200.5946,-497.0913 198.605,-488.1604"/>
<polygon fill="#000000" stroke="#000000" points="202.0156,-487.3735 196.4249,-478.3739 195.1831,-488.8957 202.0156,-487.3735"/>
</g>
<!-- G -->
<g id="node7" class="node">
<title>G</title>
<polygon fill="none" stroke="#000000" points="302.5,-396 302.5,-416 389.5,-416 389.5,-396 302.5,-396"/>
<text text-anchor="start" x="326.1689" y="-402.8" font-family="Times,serif" font-weight="bold" font-size="14.00" fill="#000000">Course</text>
<polygon fill="none" stroke="#000000" points="302.5,-374 302.5,-394 389.5,-394 389.5,-374 302.5,-374"/>
<text text-anchor="start" x="305.374" y="-380.8" font-family="Times,serif" font-style="italic" font-size="14.00" fill="#000000">course_id (pk)</text>
<polygon fill="none" stroke="#000000" points="302.5,-352 302.5,-372 389.5,-372 389.5,-352 302.5,-352"/>
<text text-anchor="start" x="306.5361" y="-358.8" font-family="Times,serif" font-style="italic" font-size="14.00" fill="#000000">school_id (fk)</text>
<polygon fill="none" stroke="#000000" points="302.5,-330 302.5,-350 389.5,-350 389.5,-330 302.5,-330"/>
<text text-anchor="start" x="330.8413" y="-335.8" font-family="Times,serif" font-size="14.00" fill="#000000">name</text>
<polygon fill="none" stroke="#000000" points="302.5,-308 302.5,-328 389.5,-328 389.5,-308 302.5,-308"/>
<text text-anchor="start" x="326.1724" y="-313.8" font-family="Times,serif" font-size="14.00" fill="#000000">subject</text>
<polygon fill="none" stroke="#000000" points="299,-305 299,-419 392,-419 392,-305 299,-305"/>
</g>
<!-- F&#45;&gt;G -->
<g id="edge5" class="edge">
<title>F&#45;&gt;G</title>
<path fill="none" stroke="#000000" d="M250.5724,-513.8183C258.5547,-502.1391 266.9147,-489.6979 274.5,-478 284.0574,-463.2607 294.0564,-447.2912 303.4329,-432.0513"/>
<polygon fill="#000000" stroke="#000000" points="306.6305,-433.5321 308.8737,-423.1775 300.6629,-429.8731 306.6305,-433.5321"/>
</g>
<!-- G&#45;&gt;C -->
<g id="edge9" class="edge">
<title>G&#45;&gt;C</title>
<path fill="none" stroke="#000000" d="M346.2148,-300.7686C346.5728,-270.0944 347.014,-232.2983 347.413,-198.1227"/>
<polygon fill="#000000" stroke="#000000" points="350.9127,-198.1584 347.5297,-188.1182 343.9132,-198.0766 350.9127,-198.1584"/>
</g>
</g>
</svg>
