<?xml version="1.0" encoding="UTF-8" standalone="no"?>
<!DOCTYPE svg PUBLIC "-//W3C//DTD SVG 1.1//EN"
 "http://www.w3.org/Graphics/SVG/1.1/DTD/svg11.dtd">
<!-- Generated by graphviz version 2.40.1 (20161225.0304)
 -->
<!-- Title: %3 Pages: 1 -->
<svg width="473pt" height="916pt"
 viewBox="0.00 0.00 473.00 916.00" xmlns="http://www.w3.org/2000/svg" xmlns:xlink="http://www.w3.org/1999/xlink">
<g id="graph0" class="graph" transform="scale(1 1) rotate(0) translate(4 912)">
<title>%3</title>
<polygon fill="#ffffff" stroke="transparent" points="-4,4 -4,-912 469,-912 469,4 -4,4"/>
<!-- E -->
<g id="node1" class="node">
<title>E</title>
<polygon fill="none" stroke="#000000" points="286.5,-881 286.5,-901 375.5,-901 375.5,-881 286.5,-881"/>
<text text-anchor="start" x="310.0034" y="-887.8" font-family="Times,serif" font-weight="bold" font-size="14.00" fill="#000000">District</text>
<polygon fill="none" stroke="#000000" points="286.5,-859 286.5,-879 375.5,-879 375.5,-859 286.5,-859"/>
<text text-anchor="start" x="289.2017" y="-865.8" font-family="Times,serif" font-style="italic" font-size="14.00" fill="#000000">district_id (pk)</text>
<polygon fill="none" stroke="#000000" points="286.5,-837 286.5,-857 375.5,-857 375.5,-837 286.5,-837"/>
<text text-anchor="start" x="317.7861" y="-842.8" font-family="Times,serif" font-size="14.00" fill="#000000">code</text>
<polygon fill="none" stroke="#000000" points="286.5,-815 286.5,-835 375.5,-835 375.5,-815 286.5,-815"/>
<text text-anchor="start" x="318.1724" y="-820.8" font-family="Times,serif" font-size="14.00" fill="#000000">state</text>
<polygon fill="none" stroke="#000000" points="286.5,-793 286.5,-813 375.5,-813 375.5,-793 286.5,-793"/>
<text text-anchor="start" x="320.5034" y="-798.8" font-family="Times,serif" font-size="14.00" fill="#000000">city</text>
<polygon fill="none" stroke="#000000" points="286.5,-771 286.5,-791 375.5,-791 375.5,-771 286.5,-771"/>
<text text-anchor="start" x="309.6172" y="-776.8" font-family="Times,serif" font-size="14.00" fill="#000000">number</text>
<polygon fill="none" stroke="#000000" points="283,-768 283,-904 378,-904 378,-768 283,-768"/>
</g>
<!-- F -->
<g id="node2" class="node">
<title>F</title>
<polygon fill="none" stroke="#000000" points="287.5,-701 287.5,-721 374.5,-721 374.5,-701 287.5,-701"/>
<text text-anchor="start" x="311.5552" y="-707.8" font-family="Times,serif" font-weight="bold" font-size="14.00" fill="#000000">School</text>
<polygon fill="none" stroke="#000000" points="287.5,-679 287.5,-699 374.5,-699 374.5,-679 287.5,-679"/>
<text text-anchor="start" x="290.3672" y="-685.8" font-family="Times,serif" font-style="italic" font-size="14.00" fill="#000000">school_id (pk)</text>
<polygon fill="none" stroke="#000000" points="287.5,-657 287.5,-677 374.5,-677 374.5,-657 287.5,-657"/>
<text text-anchor="start" x="290.3706" y="-663.8" font-family="Times,serif" font-style="italic" font-size="14.00" fill="#000000">district_id (fk)</text>
<polygon fill="none" stroke="#000000" points="287.5,-635 287.5,-655 374.5,-655 374.5,-635 287.5,-635"/>
<text text-anchor="start" x="315.8413" y="-640.8" font-family="Times,serif" font-size="14.00" fill="#000000">name</text>
<polygon fill="none" stroke="#000000" points="284,-632 284,-724 377,-724 377,-632 284,-632"/>
</g>
<!-- E&#45;&gt;F -->
<g id="edge5" class="edge">
<title>E&#45;&gt;F</title>
<path fill="none" stroke="#000000" d="M330.5,-763.9354C330.5,-755.3718 330.5,-746.6987 330.5,-738.3227"/>
<polygon fill="#000000" stroke="#000000" points="334.0001,-738.2805 330.5,-728.2806 327.0001,-738.2806 334.0001,-738.2805"/>
</g>
<!-- D -->
<g id="node3" class="node">
<title>D</title>
<polygon fill="none" stroke="#000000" points="189.5,-565 189.5,-585 291.5,-585 291.5,-565 189.5,-565"/>
<text text-anchor="start" x="219.1104" y="-571.8" font-family="Times,serif" font-weight="bold" font-size="14.00" fill="#000000">Student</text>
<polygon fill="none" stroke="#000000" points="189.5,-543 189.5,-563 291.5,-563 291.5,-543 189.5,-543"/>
<text text-anchor="start" x="197.9224" y="-549.8" font-family="Times,serif" font-style="italic" font-size="14.00" fill="#000000">student_id (pk)</text>
<polygon fill="none" stroke="#000000" points="189.5,-521 189.5,-541 291.5,-541 291.5,-521 189.5,-521"/>
<text text-anchor="start" x="192.4775" y="-527.8" font-family="Times,serif" font-style="italic" font-size="14.00" fill="#000000">school_id (m2m)</text>
<polygon fill="none" stroke="#000000" points="189.5,-499 189.5,-519 291.5,-519 291.5,-499 189.5,-499"/>
<text text-anchor="start" x="210.9482" y="-504.8" font-family="Times,serif" font-size="14.00" fill="#000000">first_name</text>
<polygon fill="none" stroke="#000000" points="189.5,-477 189.5,-497 291.5,-497 291.5,-477 189.5,-477"/>
<text text-anchor="start" x="212.1206" y="-482.8" font-family="Times,serif" font-size="14.00" fill="#000000">last_name</text>
<polygon fill="none" stroke="#000000" points="189.5,-455 189.5,-475 291.5,-475 291.5,-455 189.5,-455"/>
<text text-anchor="start" x="202.3999" y="-460.8" font-family="Times,serif" font-size="14.00" fill="#000000">middle_name</text>
<polygon fill="none" stroke="#000000" points="189.5,-433 189.5,-453 291.5,-453 291.5,-433 189.5,-433"/>
<text text-anchor="start" x="221.4551" y="-438.8" font-family="Times,serif" font-size="14.00" fill="#000000">gender</text>
<polygon fill="none" stroke="#000000" points="189.5,-411 189.5,-431 291.5,-431 291.5,-411 189.5,-411"/>
<text text-anchor="start" x="215.6206" y="-416.8" font-family="Times,serif" font-size="14.00" fill="#000000">birthdate</text>
<polygon fill="none" stroke="#000000" points="189.5,-389 189.5,-409 291.5,-409 291.5,-389 189.5,-389"/>
<text text-anchor="start" x="224.9551" y="-394.8" font-family="Times,serif" font-size="14.00" fill="#000000">grade</text>
<polygon fill="none" stroke="#000000" points="189.5,-367 189.5,-387 291.5,-387 291.5,-367 189.5,-367"/>
<text text-anchor="start" x="218.7275" y="-372.8" font-family="Times,serif" font-size="14.00" fill="#000000">state_id</text>
<polygon fill="none" stroke="#000000" points="186.5,-364 186.5,-588 294.5,-588 294.5,-364 186.5,-364"/>
</g>
<!-- F&#45;&gt;D -->
<g id="edge8" class="edge">
<title>F&#45;&gt;D</title>
<path fill="none" stroke="#000000" d="M308.1372,-627.8079C304.467,-619.5703 300.5251,-610.7229 296.4559,-601.59"/>
<polygon fill="#000000" stroke="#000000" points="299.6166,-600.0838 292.3497,-592.3739 293.2225,-602.9327 299.6166,-600.0838"/>
</g>
<!-- H -->
<g id="node4" class="node">
<title>H</title>
<polygon fill="none" stroke="#000000" points="179.5,-297 179.5,-317 302.5,-317 302.5,-297 179.5,-297"/>
<text text-anchor="start" x="203.8604" y="-303.8" font-family="Times,serif" font-weight="bold" font-size="14.00" fill="#000000">Student Snap</text>
<polygon fill="none" stroke="#000000" points="179.5,-275 179.5,-295 302.5,-295 302.5,-275 179.5,-275"/>
<text text-anchor="start" x="182.0913" y="-281.8" font-family="Times,serif" font-style="italic" font-size="14.00" fill="#000000">student_snap_id (pk)</text>
<polygon fill="none" stroke="#000000" points="179.5,-253 179.5,-273 302.5,-273 302.5,-253 179.5,-253"/>
<text text-anchor="start" x="201.5361" y="-259.8" font-family="Times,serif" font-style="italic" font-size="14.00" fill="#000000">school_id (fk)</text>
<polygon fill="none" stroke="#000000" points="179.5,-231 179.5,-251 302.5,-251 302.5,-231 179.5,-231"/>
<text text-anchor="start" x="199.5913" y="-237.8" font-family="Times,serif" font-style="italic" font-size="14.00" fill="#000000">student_id (fk)</text>
<polygon fill="none" stroke="#000000" points="179.5,-209 179.5,-229 302.5,-229 302.5,-209 179.5,-209"/>
<text text-anchor="start" x="205.2344" y="-214.8" font-family="Times,serif" font-size="14.00" fill="#000000">student_year</text>
<polygon fill="none" stroke="#000000" points="179.5,-187 179.5,-207 302.5,-207 302.5,-187 179.5,-187"/>
<text text-anchor="start" x="204.4517" y="-192.8" font-family="Times,serif" font-size="14.00" fill="#000000">student_term</text>
<polygon fill="none" stroke="#000000" points="176,-184 176,-320 305,-320 305,-184 176,-184"/>
</g>
<!-- F&#45;&gt;H -->
<g id="edge6" class="edge">
<title>F&#45;&gt;H</title>
<path fill="none" stroke="#000000" d="M335.3318,-627.7514C339.7356,-563.7782 341.6108,-450.6736 311.5,-360 308.4821,-350.912 304.4973,-341.8528 299.9518,-333.0652"/>
<polygon fill="#000000" stroke="#000000" points="302.8823,-331.1278 295.0291,-324.0161 296.7333,-334.4729 302.8823,-331.1278"/>
</g>
<!-- G -->
<g id="node5" class="node">
<title>G</title>
<polygon fill="none" stroke="#000000" points="346.5,-286 346.5,-306 433.5,-306 433.5,-286 346.5,-286"/>
<text text-anchor="start" x="370.1689" y="-292.8" font-family="Times,serif" font-weight="bold" font-size="14.00" fill="#000000">Course</text>
<polygon fill="none" stroke="#000000" points="346.5,-264 346.5,-284 433.5,-284 433.5,-264 346.5,-264"/>
<text text-anchor="start" x="349.374" y="-270.8" font-family="Times,serif" font-style="italic" font-size="14.00" fill="#000000">course_id (pk)</text>
<polygon fill="none" stroke="#000000" points="346.5,-242 346.5,-262 433.5,-262 433.5,-242 346.5,-242"/>
<text text-anchor="start" x="350.5361" y="-248.8" font-family="Times,serif" font-style="italic" font-size="14.00" fill="#000000">school_id (fk)</text>
<polygon fill="none" stroke="#000000" points="346.5,-220 346.5,-240 433.5,-240 433.5,-220 346.5,-220"/>
<text text-anchor="start" x="374.8413" y="-225.8" font-family="Times,serif" font-size="14.00" fill="#000000">name</text>
<polygon fill="none" stroke="#000000" points="346.5,-198 346.5,-218 433.5,-218 433.5,-198 346.5,-198"/>
<text text-anchor="start" x="370.1724" y="-203.8" font-family="Times,serif" font-size="14.00" fill="#000000">subject</text>
<polygon fill="none" stroke="#000000" points="343,-195 343,-309 436,-309 436,-195 343,-195"/>
</g>
<!-- F&#45;&gt;G -->
<g id="edge7" class="edge">
<title>F&#45;&gt;G</title>
<path fill="none" stroke="#000000" d="M338.9686,-627.5619C340.8559,-615.8947 342.7999,-603.5231 344.5,-592 358.1602,-499.4126 372.0102,-392.3465 380.6672,-323.485"/>
<polygon fill="#000000" stroke="#000000" points="384.1868,-323.5471 381.9587,-313.1892 377.2412,-322.6758 384.1868,-323.5471"/>
</g>
<!-- D&#45;&gt;H -->
<g id="edge4" class="edge">
<title>D&#45;&gt;H</title>
<path fill="none" stroke="#000000" d="M240.5,-359.7353C240.5,-351.1014 240.5,-342.5014 240.5,-334.1409"/>
<polygon fill="#000000" stroke="#000000" points="244.0001,-334.0754 240.5,-324.0754 237.0001,-334.0755 244.0001,-334.0754"/>
</g>
<!-- A -->
<g id="node6" class="node">
<title>A</title>
<polygon fill="none" stroke="#000000" points="11.5,-106 11.5,-126 132.5,-126 132.5,-106 11.5,-106"/>
<text text-anchor="start" x="46.3413" y="-112.8" font-family="Times,serif" font-weight="bold" font-size="14.00" fill="#000000">Behavior</text>
<polygon fill="none" stroke="#000000" points="11.5,-84 11.5,-104 132.5,-104 132.5,-84 11.5,-84"/>
<text text-anchor="start" x="14.2603" y="-90.8" font-family="Times,serif" font-style="italic" font-size="14.00" fill="#000000">student_snap_id (fk)</text>
<polygon fill="none" stroke="#000000" points="11.5,-62 11.5,-82 132.5,-82 132.5,-62 11.5,-62"/>
<text text-anchor="start" x="18.3516" y="-67.8" font-family="Times,serif" font-size="14.00" fill="#000000">incident_date_time</text>
<polygon fill="none" stroke="#000000" points="11.5,-40 11.5,-60 132.5,-60 132.5,-40 11.5,-40"/>
<text text-anchor="start" x="51.3965" y="-45.8" font-family="Times,serif" font-size="14.00" fill="#000000">context</text>
<polygon fill="none" stroke="#000000" points="11.5,-18 11.5,-38 132.5,-38 132.5,-18 11.5,-18"/>
<text text-anchor="start" x="56.4482" y="-23.8" font-family="Times,serif" font-size="14.00" fill="#000000">result</text>
<polygon fill="none" stroke="#000000" points="8,-15 8,-129 135,-129 135,-15 8,-15"/>
</g>
<!-- H&#45;&gt;A -->
<g id="edge3" class="edge">
<title>H&#45;&gt;A</title>
<path fill="none" stroke="#000000" d="M172.735,-179.8243C160.6062,-166.9061 147.9983,-153.4775 135.9655,-140.6615"/>
<polygon fill="#000000" stroke="#000000" points="138.3516,-138.0895 128.9552,-133.1949 133.2484,-142.8809 138.3516,-138.0895"/>
</g>
<!-- B -->
<g id="node7" class="node">
<title>B</title>
<polygon fill="none" stroke="#000000" points="172.5,-117 172.5,-137 293.5,-137 293.5,-117 172.5,-117"/>
<text text-anchor="start" x="201.1274" y="-123.8" font-family="Times,serif" font-weight="bold" font-size="14.00" fill="#000000">Attendance</text>
<polygon fill="none" stroke="#000000" points="172.5,-95 172.5,-115 293.5,-115 293.5,-95 172.5,-95"/>
<text text-anchor="start" x="175.2603" y="-101.8" font-family="Times,serif" font-style="italic" font-size="14.00" fill="#000000">student_snap_id (fk)</text>
<polygon fill="none" stroke="#000000" points="172.5,-73 172.5,-93 293.5,-93 293.5,-73 172.5,-73"/>
<text text-anchor="start" x="187.5171" y="-78.8" font-family="Times,serif" font-size="14.00" fill="#000000">entry_date_time</text>
<polygon fill="none" stroke="#000000" points="172.5,-51 172.5,-71 293.5,-71 293.5,-51 172.5,-51"/>
<text text-anchor="start" x="194.1206" y="-56.8" font-family="Times,serif" font-size="14.00" fill="#000000">total_unexabs</text>
<polygon fill="none" stroke="#000000" points="172.5,-29 172.5,-49 293.5,-49 293.5,-29 172.5,-29"/>
<text text-anchor="start" x="201.1206" y="-34.8" font-family="Times,serif" font-size="14.00" fill="#000000">total_exabs</text>
<polygon fill="none" stroke="#000000" points="172.5,-7 172.5,-27 293.5,-27 293.5,-7 172.5,-7"/>
<text text-anchor="start" x="198.3999" y="-12.8" font-family="Times,serif" font-size="14.00" fill="#000000">total_tardies</text>
<polygon fill="none" stroke="#000000" points="169,-4 169,-140 296,-140 296,-4 169,-4"/>
</g>
<!-- H&#45;&gt;B -->
<g id="edge1" class="edge">
<title>H&#45;&gt;B</title>
<path fill="none" stroke="#000000" d="M237.2922,-179.8243C236.9213,-171.4801 236.541,-162.9229 236.1647,-154.4555"/>
<polygon fill="#000000" stroke="#000000" points="239.6492,-154.0266 235.7085,-144.1919 232.6561,-154.3375 239.6492,-154.0266"/>
</g>
<!-- C -->
<g id="node8" class="node">
<title>C</title>
<polygon fill="none" stroke="#000000" points="333.5,-117 333.5,-137 454.5,-137 454.5,-117 333.5,-117"/>
<text text-anchor="start" x="376.8999" y="-123.8" font-family="Times,serif" font-weight="bold" font-size="14.00" fill="#000000">Grade</text>
<polygon fill="none" stroke="#000000" points="333.5,-95 333.5,-115 454.5,-115 454.5,-95 333.5,-95"/>
<text text-anchor="start" x="336.2603" y="-101.8" font-family="Times,serif" font-style="italic" font-size="14.00" fill="#000000">student_snap_id (fk)</text>
<polygon fill="none" stroke="#000000" points="333.5,-73 333.5,-93 454.5,-93 454.5,-73 333.5,-73"/>
<text text-anchor="start" x="354.543" y="-79.8" font-family="Times,serif" font-style="italic" font-size="14.00" fill="#000000">course_id (fk)</text>
<polygon fill="none" stroke="#000000" points="333.5,-51 333.5,-71 454.5,-71 454.5,-51 333.5,-51"/>
<text text-anchor="start" x="348.5171" y="-56.8" font-family="Times,serif" font-size="14.00" fill="#000000">entry_date_time</text>
<polygon fill="none" stroke="#000000" points="333.5,-29 333.5,-49 454.5,-49 454.5,-29 333.5,-29"/>
<text text-anchor="start" x="378.4551" y="-34.8" font-family="Times,serif" font-size="14.00" fill="#000000">grade</text>
<polygon fill="none" stroke="#000000" points="333.5,-7 333.5,-27 454.5,-27 454.5,-7 333.5,-7"/>
<text text-anchor="start" x="355.8965" y="-12.8" font-family="Times,serif" font-size="14.00" fill="#000000">final_boolean</text>
<polygon fill="none" stroke="#000000" points="330,-4 330,-140 457,-140 457,-4 330,-4"/>
</g>
<!-- H&#45;&gt;C -->
<g id="edge2" class="edge">
<title>H&#45;&gt;C</title>
<path fill="none" stroke="#000000" d="M301.8494,-179.8243C309.6434,-170.6548 317.656,-161.2282 325.5458,-151.9461"/>
<polygon fill="#000000" stroke="#000000" points="328.3271,-154.0781 332.1369,-144.1919 322.9936,-149.5446 328.3271,-154.0781"/>
</g>
<!-- G&#45;&gt;C -->
<g id="edge9" class="edge">
<title>G&#45;&gt;C</title>
<path fill="none" stroke="#000000" d="M390.8598,-190.809C391.1199,-179.1043 391.3962,-166.6729 391.6682,-154.4296"/>
<polygon fill="#000000" stroke="#000000" points="395.1722,-154.285 391.8953,-144.2096 388.1739,-154.1294 395.1722,-154.285"/>
</g>
</g>
</svg>
